<svg xmlns="http://www.w3.org/2000/svg" xmlns:xlink="http://www.w3.org/1999/xlink" width="300" zoomAndPan="magnify" viewBox="0 0 224.87999 225" height="300" preserveAspectRatio="xMidYMid meet" version="1.2"><defs><clipPath id="a582c0aa4f"><path d="M 0 0.0585938 L 224.761719 0.0585938 L 224.761719 224.9375 L 0 224.9375 Z M 0 0.0585938 "/></clipPath></defs><g id="1c1c0e49cd"><g clip-rule="nonzero" clip-path="url(#a582c0aa4f)"><path style=" stroke:none;fill-rule:nonzero;fill:#ffffff;fill-opacity:1;" d="M 0 0.0585938 L 224.878906 0.0585938 L 224.878906 224.941406 L 0 224.941406 Z M 0 0.0585938 "/><path style=" stroke:none;fill-rule:nonzero;fill:#000000;fill-opacity:1;" d="M 0 0.0585938 L 224.878906 0.0585938 L 224.878906 224.941406 L 0 224.941406 Z M 0 0.0585938 "/></g><g style="fill:#e70000;fill-opacity:1;"><g transform="translate(22.487998, 187.464182)"><path style="stroke:none" d="M 54.875 -116.015625 C 55.269531 -114.710938 54.75 -114.257812 53.3125 -114.65625 C 52.519531 -114.78125 51.734375 -114.773438 50.953125 -114.640625 C 50.171875 -114.515625 49.390625 -114.519531 48.609375 -114.65625 C 47.296875 -114.914062 46.050781 -114.847656 44.875 -114.453125 C 43.695312 -114.054688 42.457031 -114.054688 41.15625 -114.453125 C 40.757812 -114.585938 40.5625 -114.328125 40.5625 -113.671875 L 40.5625 -109.5625 C 40.695312 -108.382812 40.664062 -107.140625 40.46875 -105.828125 C 40.269531 -104.523438 40.238281 -103.21875 40.375 -101.90625 C 40.5 -101 40.492188 -100.117188 40.359375 -99.265625 C 40.234375 -98.410156 40.171875 -97.460938 40.171875 -96.421875 C 40.046875 -95.117188 40.078125 -93.84375 40.265625 -92.59375 C 40.460938 -91.351562 40.5625 -90.082031 40.5625 -88.78125 C 40.4375 -87.863281 40.375 -86.945312 40.375 -86.03125 C 40.375 -85.125 40.4375 -84.210938 40.5625 -83.296875 C 40.820312 -81.859375 40.882812 -80.382812 40.75 -78.875 C 40.625 -77.375 40.5625 -75.90625 40.5625 -74.46875 C 40.5625 -73.6875 40.59375 -72.867188 40.65625 -72.015625 C 40.726562 -71.171875 40.632812 -70.289062 40.375 -69.375 C 40.238281 -68.457031 40.171875 -67.570312 40.171875 -66.71875 C 40.171875 -65.875 40.238281 -64.929688 40.375 -63.890625 C 40.375 -63.234375 40.40625 -62.546875 40.46875 -61.828125 C 40.53125 -61.109375 40.5625 -60.425781 40.5625 -59.78125 C 40.5625 -59.25 40.5625 -58.691406 40.5625 -58.109375 C 40.5625 -57.523438 40.628906 -56.90625 40.765625 -56.25 C 41.023438 -55.726562 41.054688 -55.203125 40.859375 -54.671875 C 40.660156 -54.148438 40.5 -53.628906 40.375 -53.109375 C 40.238281 -52.585938 40.171875 -52.066406 40.171875 -51.546875 C 40.171875 -51.023438 40.238281 -50.4375 40.375 -49.78125 C 40.632812 -49 40.695312 -48.25 40.5625 -47.53125 C 40.4375 -46.8125 40.375 -46.054688 40.375 -45.265625 C 40.5 -43.304688 40.53125 -41.3125 40.46875 -39.28125 C 40.40625 -37.257812 40.4375 -35.207031 40.5625 -33.125 C 40.695312 -32.207031 40.796875 -31.257812 40.859375 -30.28125 C 40.921875 -29.300781 40.890625 -28.351562 40.765625 -27.4375 C 40.503906 -26 40.4375 -24.59375 40.5625 -23.21875 C 40.695312 -21.851562 40.566406 -20.453125 40.171875 -19.015625 C 40.046875 -18.097656 40.078125 -17.179688 40.265625 -16.265625 C 40.460938 -15.347656 40.5625 -14.367188 40.5625 -13.328125 L 40.5625 -1.375 C 40.4375 -0.457031 39.984375 0 39.203125 0 C 37.503906 0.132812 35.835938 0.203125 34.203125 0.203125 C 32.566406 0.203125 30.960938 0.132812 29.390625 0 L 27.234375 0 C 25.929688 0.132812 24.59375 0.132812 23.21875 0 C 21.851562 -0.132812 20.453125 -0.265625 19.015625 -0.390625 C 18.359375 -0.390625 17.832031 -0.328125 17.4375 -0.203125 C 16.53125 -0.0664062 16.007812 -0.0976562 15.875 -0.296875 C 15.738281 -0.492188 15.738281 -1.113281 15.875 -2.15625 C 16.132812 -3.332031 16.132812 -4.441406 15.875 -5.484375 C 15.738281 -6.535156 15.703125 -7.484375 15.765625 -8.328125 C 15.835938 -9.179688 15.941406 -10.0625 16.078125 -10.96875 L 16.265625 -12.34375 C 16.003906 -13.394531 15.90625 -14.410156 15.96875 -15.390625 C 16.039062 -16.367188 16.007812 -17.3125 15.875 -18.21875 C 15.875 -18.875 15.875 -19.5625 15.875 -20.28125 C 15.875 -21 15.941406 -21.6875 16.078125 -22.34375 C 16.078125 -23.125 16.109375 -23.875 16.171875 -24.59375 C 16.234375 -25.3125 16.066406 -26 15.671875 -26.65625 C 15.546875 -26.914062 15.546875 -27.207031 15.671875 -27.53125 C 15.804688 -27.863281 15.875 -28.160156 15.875 -28.421875 C 15.738281 -29.859375 15.769531 -31.195312 15.96875 -32.4375 C 16.164062 -33.675781 16.203125 -34.945312 16.078125 -36.25 C 15.941406 -37.425781 15.9375 -38.632812 16.0625 -39.875 C 16.195312 -41.125 16.066406 -42.269531 15.671875 -43.3125 C 15.410156 -43.707031 15.410156 -44.035156 15.671875 -44.296875 C 16.460938 -45.597656 16.460938 -46.90625 15.671875 -48.21875 C 15.546875 -48.601562 15.613281 -49.125 15.875 -49.78125 C 16.53125 -50.820312 16.53125 -51.867188 15.875 -52.921875 C 15.613281 -53.441406 15.546875 -53.894531 15.671875 -54.28125 C 15.941406 -55.332031 16.039062 -56.410156 15.96875 -57.515625 C 15.90625 -58.628906 15.941406 -59.773438 16.078125 -60.953125 C 16.335938 -62.515625 16.269531 -63.953125 15.875 -65.265625 C 15.738281 -66.304688 15.671875 -67.414062 15.671875 -68.59375 C 15.671875 -69.769531 15.738281 -70.878906 15.875 -71.921875 L 15.875 -83.09375 C 15.875 -84.144531 15.90625 -85.160156 15.96875 -86.140625 C 16.039062 -87.117188 15.941406 -88.066406 15.671875 -88.984375 C 15.546875 -89.628906 15.613281 -90.242188 15.875 -90.828125 C 16.132812 -91.421875 16.132812 -92.046875 15.875 -92.703125 C 15.613281 -93.742188 15.679688 -94.722656 16.078125 -95.640625 C 16.203125 -95.898438 16.265625 -96.226562 16.265625 -96.625 C 15.867188 -97.800781 15.738281 -99.007812 15.875 -100.25 C 16.007812 -101.488281 16.078125 -102.695312 16.078125 -103.875 C 15.941406 -104.914062 15.804688 -106.023438 15.671875 -107.203125 C 15.546875 -108.378906 15.679688 -109.425781 16.078125 -110.34375 C 16.335938 -110.988281 16.367188 -111.570312 16.171875 -112.09375 C 15.972656 -112.625 15.875 -113.148438 15.875 -113.671875 C 15.875 -114.191406 15.546875 -114.453125 14.890625 -114.453125 C 13.585938 -114.328125 12.347656 -114.328125 11.171875 -114.453125 C 9.992188 -114.585938 8.753906 -114.523438 7.453125 -114.265625 C 6.660156 -114.128906 5.875 -114.09375 5.09375 -114.15625 C 4.3125 -114.226562 3.53125 -114.328125 2.75 -114.453125 C 1.957031 -114.453125 1.691406 -114.84375 1.953125 -115.625 C 2.085938 -116.414062 2.117188 -117.171875 2.046875 -117.890625 C 1.984375 -118.609375 2.019531 -119.289062 2.15625 -119.9375 C 2.289062 -120.59375 2.320312 -121.3125 2.25 -122.09375 C 2.1875 -122.882812 2.085938 -123.601562 1.953125 -124.25 C 1.828125 -125.039062 1.765625 -125.859375 1.765625 -126.703125 C 1.765625 -127.554688 1.828125 -128.4375 1.953125 -129.34375 C 2.085938 -129.738281 2.1875 -130.164062 2.25 -130.625 C 2.320312 -131.082031 2.222656 -131.441406 1.953125 -131.703125 C 1.566406 -132.484375 1.4375 -133.234375 1.5625 -133.953125 C 1.695312 -134.671875 1.695312 -135.421875 1.5625 -136.203125 C 1.4375 -136.859375 1.832031 -137.1875 2.75 -137.1875 L 9.796875 -137.1875 C 10.835938 -137.0625 11.847656 -136.929688 12.828125 -136.796875 C 13.816406 -136.660156 14.765625 -136.660156 15.671875 -136.796875 C 16.722656 -136.929688 17.703125 -136.929688 18.609375 -136.796875 C 19.523438 -136.660156 20.441406 -136.660156 21.359375 -136.796875 C 22.671875 -137.054688 23.976562 -137.117188 25.28125 -136.984375 C 26.582031 -136.859375 27.890625 -136.863281 29.203125 -137 C 30.503906 -137.125 31.84375 -137.21875 33.21875 -137.28125 C 34.59375 -137.351562 35.929688 -137.191406 37.234375 -136.796875 C 38.546875 -136.535156 39.65625 -136.601562 40.5625 -137 C 41.875 -137.257812 43.148438 -137.289062 44.390625 -137.09375 C 45.628906 -136.894531 46.90625 -136.796875 48.21875 -136.796875 C 49.125 -136.796875 50 -136.828125 50.84375 -136.890625 C 51.695312 -136.960938 52.519531 -137.0625 53.3125 -137.1875 C 54.488281 -137.320312 55.007812 -136.800781 54.875 -135.625 C 54.875 -135.101562 54.804688 -134.578125 54.671875 -134.046875 C 54.546875 -133.523438 54.546875 -132.941406 54.671875 -132.296875 C 54.941406 -130.585938 54.941406 -128.882812 54.671875 -127.1875 C 54.410156 -125.488281 54.476562 -123.726562 54.875 -121.90625 L 54.875 -120.71875 C 54.738281 -119.9375 54.601562 -119.15625 54.46875 -118.375 C 54.34375 -117.59375 54.476562 -116.804688 54.875 -116.015625 Z M 27.4375 -130.921875 C 27.4375 -131.046875 27.398438 -131.039062 27.328125 -130.90625 C 27.265625 -130.78125 27.300781 -130.65625 27.4375 -130.53125 C 27.4375 -130 27.695312 -129.734375 28.21875 -129.734375 L 28.21875 -130.140625 C 28.09375 -130.265625 27.992188 -130.390625 27.921875 -130.515625 C 27.859375 -130.648438 27.695312 -130.785156 27.4375 -130.921875 Z M 25.484375 -130.140625 C 25.085938 -130.140625 24.890625 -130.070312 24.890625 -129.9375 C 25.148438 -129.800781 25.378906 -129.601562 25.578125 -129.34375 C 25.773438 -129.082031 26.003906 -128.890625 26.265625 -128.765625 C 26.390625 -128.628906 26.453125 -128.757812 26.453125 -129.15625 C 26.453125 -129.9375 26.128906 -130.265625 25.484375 -130.140625 Z M 24.296875 -128.765625 C 24.171875 -128.765625 24.109375 -128.726562 24.109375 -128.65625 C 24.109375 -128.59375 24.171875 -128.5625 24.296875 -128.5625 C 24.554688 -128.300781 24.6875 -128.171875 24.6875 -128.171875 L 24.6875 -128.375 C 24.6875 -128.632812 24.554688 -128.765625 24.296875 -128.765625 Z M 29.390625 -128.375 C 29.265625 -128.238281 29.203125 -128.109375 29.203125 -127.984375 C 29.203125 -127.585938 29.398438 -127.390625 29.796875 -127.390625 C 30.179688 -127.390625 30.3125 -127.453125 30.1875 -127.578125 C 30.1875 -127.847656 30.085938 -128.015625 29.890625 -128.078125 C 29.691406 -128.140625 29.523438 -128.238281 29.390625 -128.375 Z M 28.8125 -125.828125 C 28.414062 -125.566406 28.285156 -125.300781 28.421875 -125.03125 C 28.941406 -124.507812 29.203125 -123.988281 29.203125 -123.46875 C 29.328125 -123.34375 29.390625 -123.210938 29.390625 -123.078125 C 29.390625 -122.941406 29.457031 -122.875 29.59375 -122.875 C 29.851562 -123.007812 29.984375 -123.175781 29.984375 -123.375 C 29.984375 -123.570312 30.050781 -123.734375 30.1875 -123.859375 C 29.925781 -124.640625 29.660156 -125.296875 29.390625 -125.828125 C 29.265625 -126.085938 29.070312 -126.085938 28.8125 -125.828125 Z M 22.734375 -125.4375 C 22.472656 -125.4375 22.34375 -125.300781 22.34375 -125.03125 C 22.34375 -124.644531 22.503906 -124.453125 22.828125 -124.453125 C 23.160156 -124.453125 23.390625 -124.320312 23.515625 -124.0625 C 23.515625 -123.925781 23.578125 -123.890625 23.703125 -123.953125 C 23.835938 -124.023438 23.90625 -124.125 23.90625 -124.25 C 23.519531 -124.90625 23.128906 -125.300781 22.734375 -125.4375 Z M 12.15625 -124.640625 C 12.414062 -124.898438 12.347656 -125.03125 11.953125 -125.03125 C 11.554688 -124.90625 11.359375 -124.710938 11.359375 -124.453125 C 11.234375 -124.316406 11.367188 -124.25 11.765625 -124.25 Z M 34.09375 -122.09375 C 33.832031 -121.832031 33.832031 -121.703125 34.09375 -121.703125 C 34.882812 -121.316406 35.210938 -121.578125 35.078125 -122.484375 C 35.734375 -122.484375 35.929688 -122.878906 35.671875 -123.671875 C 35.671875 -124.054688 35.539062 -124.117188 35.28125 -123.859375 C 35.144531 -123.734375 35.078125 -123.570312 35.078125 -123.375 C 35.078125 -123.175781 35.078125 -122.945312 35.078125 -122.6875 L 35.078125 -122.296875 C 34.953125 -122.296875 34.820312 -122.257812 34.6875 -122.1875 C 34.5625 -122.125 34.363281 -122.09375 34.09375 -122.09375 Z M 27.234375 -123.078125 C 27.109375 -122.679688 27.207031 -122.414062 27.53125 -122.28125 C 27.863281 -122.15625 28.09375 -121.960938 28.21875 -121.703125 C 28.476562 -121.703125 28.609375 -121.832031 28.609375 -122.09375 C 28.609375 -122.75 28.21875 -123.207031 27.4375 -123.46875 C 27.300781 -123.46875 27.234375 -123.335938 27.234375 -123.078125 Z M 25.875 -120.328125 C 24.957031 -120.460938 24.367188 -120.988281 24.109375 -121.90625 C 23.847656 -122.164062 23.648438 -122.296875 23.515625 -122.296875 C 22.992188 -122.296875 22.800781 -122.097656 22.9375 -121.703125 C 22.9375 -121.179688 23.160156 -120.820312 23.609375 -120.625 C 24.066406 -120.425781 24.363281 -120.195312 24.5 -119.9375 C 24.757812 -119.675781 25.019531 -119.578125 25.28125 -119.640625 C 25.539062 -119.710938 25.738281 -119.75 25.875 -119.75 C 26 -119.75 26.09375 -119.78125 26.15625 -119.84375 C 26.226562 -119.90625 26.265625 -119.9375 26.265625 -119.9375 C 26.265625 -120.195312 26.132812 -120.328125 25.875 -120.328125 Z M 25.671875 -121.703125 C 25.671875 -121.835938 25.539062 -121.90625 25.28125 -121.90625 C 24.882812 -121.90625 24.820312 -121.773438 25.09375 -121.515625 C 25.09375 -121.378906 25.222656 -121.3125 25.484375 -121.3125 C 25.484375 -121.3125 25.515625 -121.34375 25.578125 -121.40625 C 25.640625 -121.476562 25.671875 -121.578125 25.671875 -121.703125 Z M 22.34375 -119.359375 C 22.34375 -119.097656 22.40625 -118.96875 22.53125 -118.96875 C 22.925781 -118.96875 23.125 -119.160156 23.125 -119.546875 C 23.257812 -119.804688 23.195312 -119.9375 22.9375 -119.9375 C 22.539062 -119.9375 22.34375 -119.742188 22.34375 -119.359375 Z M 35.28125 -119.359375 C 35.019531 -119.359375 34.953125 -119.289062 35.078125 -119.15625 C 35.210938 -119.03125 35.28125 -118.898438 35.28125 -118.765625 C 35.144531 -118.367188 35.207031 -118.039062 35.46875 -117.78125 C 35.46875 -117.78125 35.5 -117.75 35.5625 -117.6875 C 35.632812 -117.625 35.734375 -117.59375 35.859375 -117.59375 C 35.859375 -117.71875 35.890625 -117.78125 35.953125 -117.78125 C 36.023438 -117.78125 36.0625 -117.847656 36.0625 -117.984375 L 35.671875 -118.96875 C 35.671875 -119.351562 35.539062 -119.484375 35.28125 -119.359375 Z M 29 -118.375 C 29 -118.375 28.96875 -118.335938 28.90625 -118.265625 C 28.84375 -118.203125 28.875 -118.171875 29 -118.171875 C 29.132812 -118.046875 29.203125 -117.851562 29.203125 -117.59375 C 29.203125 -117.332031 29.332031 -117.203125 29.59375 -117.203125 C 29.59375 -117.203125 29.625 -117.234375 29.6875 -117.296875 C 29.757812 -117.359375 29.796875 -117.457031 29.796875 -117.59375 C 29.523438 -118.113281 29.257812 -118.375 29 -118.375 Z M 26.453125 -116.21875 C 26.453125 -116.21875 26.484375 -116.25 26.546875 -116.3125 C 26.617188 -116.382812 26.65625 -116.484375 26.65625 -116.609375 C 26.519531 -116.742188 26.421875 -116.875 26.359375 -117 C 26.296875 -117.132812 26.132812 -117.265625 25.875 -117.390625 L 25.671875 -117.203125 C 25.671875 -116.804688 25.929688 -116.476562 26.453125 -116.21875 Z M 31.15625 -113.671875 C 31.15625 -113.929688 30.894531 -114.191406 30.375 -114.453125 C 30.113281 -114.710938 29.984375 -114.648438 29.984375 -114.265625 C 29.984375 -113.867188 30.242188 -113.539062 30.765625 -113.28125 C 31.023438 -113.28125 31.15625 -113.410156 31.15625 -113.671875 Z M 27.828125 -112.5 C 28.085938 -112.757812 28.285156 -113.019531 28.421875 -113.28125 C 28.421875 -113.539062 28.289062 -113.671875 28.03125 -113.671875 C 27.632812 -113.671875 27.4375 -113.410156 27.4375 -112.890625 C 27.4375 -112.492188 27.566406 -112.363281 27.828125 -112.5 Z M 31.75 -83.296875 C 31.09375 -83.421875 30.765625 -83.160156 30.765625 -82.515625 L 29.796875 -82.515625 C 29.003906 -82.253906 28.675781 -81.859375 28.8125 -81.328125 C 29.070312 -81.066406 29.265625 -81.097656 29.390625 -81.421875 C 29.523438 -81.753906 29.660156 -81.851562 29.796875 -81.71875 L 30.578125 -81.71875 C 30.703125 -81.851562 30.765625 -82.117188 30.765625 -82.515625 C 31.285156 -82.515625 31.742188 -82.609375 32.140625 -82.796875 C 32.535156 -82.992188 32.992188 -82.898438 33.515625 -82.515625 L 33.90625 -82.515625 L 33.90625 -82.90625 C 33.644531 -83.164062 33.316406 -83.296875 32.921875 -83.296875 C 32.535156 -83.296875 32.144531 -83.296875 31.75 -83.296875 Z M 24.6875 -82.3125 C 24.425781 -81.65625 24.625 -81.328125 25.28125 -81.328125 C 25.539062 -81.328125 25.769531 -81.296875 25.96875 -81.234375 C 26.164062 -81.171875 26.328125 -81.269531 26.453125 -81.53125 C 26.328125 -81.789062 26.164062 -81.953125 25.96875 -82.015625 C 25.769531 -82.085938 25.539062 -82.1875 25.28125 -82.3125 C 24.882812 -82.707031 24.6875 -82.707031 24.6875 -82.3125 Z M 23.71875 -79.375 C 23.582031 -79.113281 23.710938 -78.984375 24.109375 -78.984375 L 24.5 -78.984375 C 24.5 -79.242188 24.429688 -79.375 24.296875 -79.375 C 24.171875 -79.375 24.039062 -79.4375 23.90625 -79.5625 Z M 29 -77.609375 C 28.476562 -77.609375 28.21875 -77.476562 28.21875 -77.21875 C 28.21875 -76.957031 28.476562 -76.828125 29 -76.828125 C 29.132812 -76.953125 29.300781 -76.914062 29.5 -76.71875 C 29.695312 -76.53125 29.726562 -76.628906 29.59375 -77.015625 C 29.59375 -77.410156 29.394531 -77.609375 29 -77.609375 Z M 32.53125 -72.3125 C 32.269531 -73.101562 32.46875 -73.5625 33.125 -73.6875 C 33.507812 -73.945312 33.570312 -74.207031 33.3125 -74.46875 C 33.1875 -74.726562 33.054688 -74.789062 32.921875 -74.65625 C 32.796875 -74.53125 32.601562 -74.40625 32.34375 -74.28125 C 32.207031 -74.28125 32.140625 -74.210938 32.140625 -74.078125 C 32.140625 -73.953125 32.078125 -73.820312 31.953125 -73.6875 C 31.953125 -74.863281 32.273438 -75.78125 32.921875 -76.4375 C 33.441406 -76.695312 33.570312 -76.957031 33.3125 -77.21875 C 33.3125 -77.21875 32.988281 -77.085938 32.34375 -76.828125 C 32.082031 -76.566406 31.851562 -76.207031 31.65625 -75.75 C 31.457031 -75.289062 31.03125 -75.128906 30.375 -75.265625 C 29.988281 -75.265625 29.988281 -75.066406 30.375 -74.671875 C 30.632812 -74.535156 30.894531 -74.367188 31.15625 -74.171875 C 31.414062 -73.984375 31.679688 -73.890625 31.953125 -73.890625 L 31.953125 -73.6875 C 31.816406 -73.300781 31.75 -72.878906 31.75 -72.421875 C 31.75 -71.960938 31.359375 -72.054688 30.578125 -72.703125 C 30.179688 -73.097656 29.984375 -72.96875 29.984375 -72.3125 C 30.242188 -71.40625 30.765625 -71.015625 31.546875 -71.140625 C 31.816406 -71.273438 32.113281 -71.34375 32.4375 -71.34375 C 32.757812 -71.34375 32.789062 -71.664062 32.53125 -72.3125 Z M 35.859375 -75.265625 C 36.253906 -75.523438 36.453125 -75.847656 36.453125 -76.234375 C 36.453125 -76.492188 36.253906 -76.625 35.859375 -76.625 C 35.335938 -76.625 35.144531 -76.363281 35.28125 -75.84375 C 35.28125 -75.457031 35.472656 -75.265625 35.859375 -75.265625 Z M 27.046875 -70.359375 C 27.171875 -70.484375 27.101562 -70.546875 26.84375 -70.546875 C 26.582031 -70.546875 26.351562 -70.382812 26.15625 -70.0625 C 25.96875 -69.738281 25.675781 -69.578125 25.28125 -69.578125 C 24.757812 -69.578125 24.5625 -69.1875 24.6875 -68.40625 C 24.6875 -68.40625 24.6875 -68.207031 24.6875 -67.8125 C 24.425781 -67.289062 24.492188 -66.960938 24.890625 -66.828125 C 25.285156 -66.703125 25.613281 -66.898438 25.875 -67.421875 C 26.132812 -67.941406 26.328125 -68.429688 26.453125 -68.890625 C 26.585938 -69.347656 26.785156 -69.835938 27.046875 -70.359375 Z M 35.46875 -67.03125 C 36.382812 -67.289062 36.582031 -67.679688 36.0625 -68.203125 C 35.800781 -68.460938 35.734375 -68.753906 35.859375 -69.078125 C 35.992188 -69.410156 35.734375 -69.578125 35.078125 -69.578125 C 34.953125 -69.578125 34.660156 -69.609375 34.203125 -69.671875 C 33.742188 -69.734375 33.253906 -69.703125 32.734375 -69.578125 C 32.335938 -69.441406 32.007812 -69.503906 31.75 -69.765625 C 31.488281 -70.023438 31.257812 -70.054688 31.0625 -69.859375 C 30.863281 -69.671875 30.703125 -69.507812 30.578125 -69.375 C 30.441406 -69.25 30.375 -69.085938 30.375 -68.890625 C 30.375 -68.691406 30.441406 -68.59375 30.578125 -68.59375 C 31.097656 -68.46875 31.457031 -68.175781 31.65625 -67.71875 C 31.851562 -67.257812 32.210938 -67.03125 32.734375 -67.03125 C 32.597656 -66.632812 32.628906 -66.269531 32.828125 -65.9375 C 33.023438 -65.613281 33.125 -65.257812 33.125 -64.875 C 33.125 -64.738281 33.1875 -64.601562 33.3125 -64.46875 C 33.445312 -64.34375 33.515625 -64.347656 33.515625 -64.484375 C 33.773438 -65.128906 34.066406 -65.320312 34.390625 -65.0625 C 34.722656 -64.800781 34.953125 -64.609375 35.078125 -64.484375 C 35.597656 -64.222656 35.925781 -64.222656 36.0625 -64.484375 C 36.1875 -64.742188 35.988281 -65.003906 35.46875 -65.265625 C 34.6875 -65.785156 34.6875 -66.375 35.46875 -67.03125 Z M 33.515625 -68.59375 C 33.515625 -68.195312 33.316406 -67.804688 32.921875 -67.421875 C 32.921875 -67.285156 32.859375 -67.15625 32.734375 -67.03125 L 32.734375 -67.421875 C 32.597656 -67.941406 32.726562 -68.398438 33.125 -68.796875 C 33.382812 -68.796875 33.515625 -68.726562 33.515625 -68.59375 Z M 29.796875 -68 C 29.398438 -68 29.203125 -67.804688 29.203125 -67.421875 C 29.203125 -66.898438 29.53125 -66.640625 30.1875 -66.640625 C 30.445312 -66.640625 30.578125 -66.832031 30.578125 -67.21875 C 30.316406 -67.738281 30.054688 -68 29.796875 -68 Z M 20.78125 -66.4375 C 20.78125 -66.175781 20.679688 -65.878906 20.484375 -65.546875 C 20.285156 -65.222656 20.25 -64.867188 20.375 -64.484375 L 20.78125 -64.484375 C 21.039062 -64.742188 21.101562 -65.003906 20.96875 -65.265625 C 20.84375 -65.523438 20.84375 -65.785156 20.96875 -66.046875 C 20.96875 -66.179688 21.035156 -66.3125 21.171875 -66.4375 L 21.171875 -66.640625 C 20.910156 -66.898438 20.78125 -66.832031 20.78125 -66.4375 Z M 30.375 -63.296875 C 29.851562 -63.691406 29.164062 -63.921875 28.3125 -63.984375 C 27.46875 -64.054688 26.914062 -64.546875 26.65625 -65.453125 C 26.65625 -65.710938 26.457031 -65.648438 26.0625 -65.265625 C 25.800781 -65.128906 25.640625 -64.863281 25.578125 -64.46875 C 25.515625 -64.082031 25.15625 -64.019531 24.5 -64.28125 C 24.5 -64.019531 24.429688 -63.820312 24.296875 -63.6875 C 24.554688 -63.5625 24.6875 -63.332031 24.6875 -63 C 24.6875 -62.675781 24.820312 -62.382812 25.09375 -62.125 C 25.09375 -62 25.15625 -61.898438 25.28125 -61.828125 C 25.414062 -61.765625 25.484375 -61.734375 25.484375 -61.734375 C 25.742188 -61.992188 25.773438 -62.125 25.578125 -62.125 C 25.378906 -62.125 25.28125 -62.191406 25.28125 -62.328125 C 25.28125 -62.847656 25.410156 -62.976562 25.671875 -62.71875 C 25.929688 -62.582031 26.253906 -62.742188 26.640625 -63.203125 C 27.035156 -63.660156 27.300781 -63.367188 27.4375 -62.328125 L 27.640625 -62.328125 C 28.023438 -62.585938 28.378906 -62.679688 28.703125 -62.609375 C 29.035156 -62.546875 29.398438 -62.382812 29.796875 -62.125 C 30.316406 -61.738281 30.769531 -61.9375 31.15625 -62.71875 C 31.289062 -62.976562 31.226562 -63.109375 30.96875 -63.109375 C 30.707031 -63.109375 30.507812 -63.171875 30.375 -63.296875 Z M 22.140625 -63.6875 C 21.492188 -63.6875 21.300781 -63.425781 21.5625 -62.90625 C 21.5625 -62.382812 21.5625 -62.125 21.5625 -62.125 C 21.820312 -62.125 21.984375 -62.253906 22.046875 -62.515625 C 22.109375 -62.773438 22.207031 -62.972656 22.34375 -63.109375 C 22.34375 -63.367188 22.273438 -63.5625 22.140625 -63.6875 Z M 32.140625 -62.71875 C 32.140625 -62.320312 32.207031 -62.125 32.34375 -62.125 C 32.601562 -62.257812 32.734375 -62.519531 32.734375 -62.90625 C 32.734375 -63.300781 32.664062 -63.5 32.53125 -63.5 C 32.269531 -63.5 32.140625 -63.238281 32.140625 -62.71875 Z M 28.21875 -59.78125 L 28.03125 -59.96875 C 27.769531 -59.96875 27.375 -59.835938 26.84375 -59.578125 C 26.84375 -59.578125 26.84375 -59.546875 26.84375 -59.484375 C 26.84375 -59.421875 26.910156 -59.390625 27.046875 -59.390625 C 27.304688 -59.390625 27.535156 -59.390625 27.734375 -59.390625 C 27.929688 -59.390625 28.09375 -59.519531 28.21875 -59.78125 Z M 21.953125 -59.390625 C 22.078125 -59.773438 22.007812 -59.867188 21.75 -59.671875 C 21.488281 -59.484375 21.296875 -59.453125 21.171875 -59.578125 C 20.640625 -59.835938 20.375 -59.773438 20.375 -59.390625 C 20.375 -59.117188 20.640625 -58.851562 21.171875 -58.59375 C 21.691406 -58.59375 21.953125 -58.859375 21.953125 -59.390625 Z M 22.53125 -58.984375 C 22.53125 -58.597656 22.664062 -58.40625 22.9375 -58.40625 C 23.195312 -58.40625 23.328125 -58.535156 23.328125 -58.796875 C 23.328125 -59.054688 23.195312 -59.253906 22.9375 -59.390625 Z M 32.140625 -57.625 C 32.015625 -57.488281 32.273438 -57.09375 32.921875 -56.4375 C 33.179688 -56.3125 33.410156 -56.210938 33.609375 -56.140625 C 33.804688 -56.078125 33.96875 -55.984375 34.09375 -55.859375 C 34.882812 -55.859375 35.210938 -56.179688 35.078125 -56.828125 C 35.078125 -57.222656 34.945312 -57.550781 34.6875 -57.8125 C 34.425781 -58.46875 34.035156 -58.796875 33.515625 -58.796875 C 32.734375 -58.535156 32.273438 -58.144531 32.140625 -57.625 Z M 25.28125 -57.8125 C 25.28125 -58.207031 25.082031 -58.40625 24.6875 -58.40625 C 24.5625 -58.40625 24.5 -58.273438 24.5 -58.015625 C 24.757812 -57.753906 24.957031 -57.625 25.09375 -57.625 C 25.21875 -57.488281 25.28125 -57.550781 25.28125 -57.8125 Z M 19.59375 -56.25 C 19.851562 -56.375 20.015625 -56.566406 20.078125 -56.828125 C 20.148438 -57.097656 20.25 -57.296875 20.375 -57.421875 C 20.375 -57.554688 20.242188 -57.625 19.984375 -57.625 C 19.460938 -57.75 19.203125 -57.421875 19.203125 -56.640625 C 19.078125 -56.503906 19.078125 -56.367188 19.203125 -56.234375 C 19.335938 -56.109375 19.46875 -56.113281 19.59375 -56.25 Z M 28.8125 -57.421875 C 29.070312 -57.160156 29.398438 -57.03125 29.796875 -57.03125 C 30.054688 -56.769531 30.1875 -56.835938 30.1875 -57.234375 C 30.050781 -57.359375 29.914062 -57.421875 29.78125 -57.421875 C 29.65625 -57.421875 29.460938 -57.488281 29.203125 -57.625 C 28.804688 -57.625 28.675781 -57.554688 28.8125 -57.421875 Z M 22.9375 -57.03125 C 23.195312 -56.769531 23.457031 -56.640625 23.71875 -56.640625 C 23.84375 -56.640625 23.90625 -56.769531 23.90625 -57.03125 C 23.644531 -57.289062 23.382812 -57.421875 23.125 -57.421875 C 22.726562 -57.421875 22.664062 -57.289062 22.9375 -57.03125 Z M 29.796875 -53.703125 C 29.265625 -54.222656 29 -54.8125 29 -55.46875 L 28.8125 -55.46875 L 28.8125 -55.265625 C 28.675781 -55.140625 28.609375 -54.78125 28.609375 -54.1875 C 28.609375 -53.601562 28.675781 -53.179688 28.8125 -52.921875 C 29.070312 -52.660156 29.265625 -52.660156 29.390625 -52.921875 C 29.523438 -53.046875 29.625 -53.207031 29.6875 -53.40625 C 29.757812 -53.601562 29.796875 -53.703125 29.796875 -53.703125 Z M 33.125 -54.28125 C 33.25 -54.28125 33.3125 -54.476562 33.3125 -54.875 C 33.570312 -55.394531 33.441406 -55.523438 32.921875 -55.265625 C 32.660156 -55.265625 32.53125 -55.066406 32.53125 -54.671875 C 32.789062 -54.410156 32.988281 -54.28125 33.125 -54.28125 Z M 30.96875 -51.34375 C 30.96875 -51.863281 31.128906 -52.285156 31.453125 -52.609375 C 31.785156 -52.941406 31.816406 -53.367188 31.546875 -53.890625 L 31.546875 -54.28125 C 31.546875 -54.675781 31.546875 -54.875 31.546875 -54.875 C 31.285156 -55.132812 31.15625 -55.003906 31.15625 -54.484375 C 30.894531 -54.085938 30.695312 -53.628906 30.5625 -53.109375 C 30.4375 -52.585938 30.242188 -52.195312 29.984375 -51.9375 C 29.859375 -51.800781 29.828125 -51.664062 29.890625 -51.53125 C 29.953125 -51.40625 30.050781 -51.34375 30.1875 -51.34375 C 30.707031 -51.082031 30.96875 -51.082031 30.96875 -51.34375 Z M 21.5625 -53.3125 C 21.820312 -53.175781 21.820312 -52.976562 21.5625 -52.71875 C 21.300781 -52.457031 21.429688 -52.394531 21.953125 -52.53125 C 22.210938 -52.53125 22.503906 -52.660156 22.828125 -52.921875 C 23.160156 -53.179688 23.257812 -53.570312 23.125 -54.09375 C 23.125 -54.613281 22.992188 -54.742188 22.734375 -54.484375 C 22.597656 -54.347656 22.332031 -54.28125 21.9375 -54.28125 C 21.550781 -54.28125 21.425781 -53.957031 21.5625 -53.3125 Z M 33.125 -50.375 C 33.507812 -50.375 33.632812 -50.503906 33.5 -50.765625 C 33.375 -51.023438 33.3125 -51.285156 33.3125 -51.546875 C 33.3125 -51.671875 33.441406 -51.734375 33.703125 -51.734375 C 33.835938 -51.867188 34.003906 -51.9375 34.203125 -51.9375 C 34.398438 -51.9375 34.363281 -52.066406 34.09375 -52.328125 C 33.832031 -52.585938 33.570312 -52.71875 33.3125 -52.71875 C 32.53125 -52.71875 32.269531 -52.390625 32.53125 -51.734375 C 32.53125 -50.828125 32.726562 -50.375 33.125 -50.375 Z M 24.890625 -49.96875 C 24.890625 -49.1875 24.988281 -48.765625 25.1875 -48.703125 C 25.382812 -48.640625 25.804688 -48.738281 26.453125 -49 C 26.191406 -49.257812 25.929688 -49.519531 25.671875 -49.78125 C 25.410156 -50.039062 25.148438 -50.101562 24.890625 -49.96875 C 25.148438 -50.5 25.28125 -50.894531 25.28125 -51.15625 C 25.28125 -51.414062 25.179688 -51.675781 24.984375 -51.9375 C 24.785156 -52.195312 24.625 -52.195312 24.5 -51.9375 C 24.238281 -51.539062 23.878906 -51.40625 23.421875 -51.53125 C 22.960938 -51.664062 22.601562 -51.472656 22.34375 -50.953125 C 22.34375 -50.828125 22.273438 -50.765625 22.140625 -50.765625 C 22.015625 -50.765625 21.953125 -50.632812 21.953125 -50.375 C 21.953125 -50.238281 22.144531 -50.171875 22.53125 -50.171875 C 22.925781 -50.171875 23.316406 -50.132812 23.703125 -50.0625 C 24.097656 -50 24.492188 -49.96875 24.890625 -49.96875 Z M 28.609375 -50.375 C 28.867188 -50.894531 28.9375 -51.21875 28.8125 -51.34375 C 28.675781 -51.476562 28.539062 -51.445312 28.40625 -51.25 C 28.28125 -51.050781 28.085938 -50.890625 27.828125 -50.765625 L 27.640625 -50.765625 C 27.109375 -50.765625 26.84375 -50.597656 26.84375 -50.265625 C 26.84375 -49.941406 26.84375 -49.582031 26.84375 -49.1875 C 27.101562 -49.445312 27.265625 -49.707031 27.328125 -49.96875 C 27.398438 -50.238281 27.503906 -50.503906 27.640625 -50.765625 C 27.898438 -50.765625 28.09375 -50.664062 28.21875 -50.46875 C 28.351562 -50.269531 28.484375 -50.238281 28.609375 -50.375 Z M 32.53125 -47.625 C 32.144531 -47.226562 32.34375 -47.03125 33.125 -47.03125 C 33.382812 -47.289062 33.609375 -47.550781 33.796875 -47.8125 C 33.992188 -48.082031 34.359375 -48.148438 34.890625 -48.015625 L 34.890625 -49 C 34.890625 -49.125 34.757812 -49.1875 34.5 -49.1875 C 33.96875 -49.0625 33.570312 -48.832031 33.3125 -48.5 C 33.050781 -48.175781 32.789062 -47.882812 32.53125 -47.625 Z M 30.375 -47.03125 C 30.632812 -46.769531 30.832031 -46.640625 30.96875 -46.640625 C 31.09375 -46.640625 31.15625 -46.769531 31.15625 -47.03125 C 30.894531 -47.289062 30.765625 -47.421875 30.765625 -47.421875 C 30.503906 -47.421875 30.375 -47.289062 30.375 -47.03125 Z M 27.234375 -47.03125 C 27.234375 -47.425781 27.101562 -47.492188 26.84375 -47.234375 C 26.71875 -47.097656 26.585938 -47.03125 26.453125 -47.03125 C 26.328125 -47.03125 26.195312 -46.96875 26.0625 -46.84375 C 26.0625 -46.582031 26.191406 -46.453125 26.453125 -46.453125 C 26.972656 -46.453125 27.234375 -46.644531 27.234375 -47.03125 Z M 21.359375 -46.25 C 21.234375 -46.382812 21.203125 -46.546875 21.265625 -46.734375 C 21.328125 -46.929688 21.226562 -47.03125 20.96875 -47.03125 C 20.707031 -47.03125 20.578125 -46.835938 20.578125 -46.453125 C 20.578125 -45.929688 20.773438 -45.671875 21.171875 -45.671875 C 21.296875 -45.671875 21.359375 -45.863281 21.359375 -46.25 Z M 30.765625 -44.484375 C 31.285156 -44.484375 31.414062 -44.679688 31.15625 -45.078125 C 31.03125 -45.472656 30.769531 -45.765625 30.375 -45.953125 C 29.988281 -46.148438 29.660156 -46.316406 29.390625 -46.453125 C 29.128906 -46.453125 29 -46.320312 29 -46.0625 C 29.257812 -45.40625 29.847656 -44.878906 30.765625 -44.484375 Z M 35.46875 -43.90625 C 35.46875 -44.425781 35.273438 -44.554688 34.890625 -44.296875 C 34.753906 -44.296875 34.6875 -44.226562 34.6875 -44.09375 C 34.6875 -43.832031 34.882812 -43.703125 35.28125 -43.703125 C 35.539062 -43.703125 35.601562 -43.769531 35.46875 -43.90625 Z M 27.234375 -42.328125 C 27.628906 -42.203125 27.957031 -42.460938 28.21875 -43.109375 C 28.21875 -43.242188 28.1875 -43.375 28.125 -43.5 C 28.0625 -43.632812 28.03125 -43.703125 28.03125 -43.703125 C 27.632812 -43.703125 27.269531 -43.601562 26.9375 -43.40625 C 26.613281 -43.207031 26.320312 -43.375 26.0625 -43.90625 C 25.9375 -43.90625 25.875 -43.867188 25.875 -43.796875 C 25.875 -43.734375 25.875 -43.703125 25.875 -43.703125 C 25.738281 -43.046875 26.191406 -42.585938 27.234375 -42.328125 Z M 21.75 -41.15625 C 22.007812 -41.289062 22.140625 -41.488281 22.140625 -41.75 C 22.140625 -42.394531 21.945312 -42.65625 21.5625 -42.53125 C 21.425781 -42.394531 21.289062 -42.257812 21.15625 -42.125 C 21.03125 -42 20.835938 -41.875 20.578125 -41.75 Z M 24.296875 -40.953125 C 24.554688 -41.222656 24.6875 -41.421875 24.6875 -41.546875 C 24.6875 -41.804688 24.554688 -41.9375 24.296875 -41.9375 C 24.035156 -41.675781 23.90625 -41.484375 23.90625 -41.359375 C 23.90625 -41.085938 24.035156 -40.953125 24.296875 -40.953125 Z M 29.796875 -36.25 C 30.054688 -36.519531 30.1875 -36.65625 30.1875 -36.65625 C 30.1875 -36.914062 30.054688 -37.046875 29.796875 -37.046875 C 29.660156 -36.910156 29.59375 -36.78125 29.59375 -36.65625 C 29.332031 -36.382812 29.398438 -36.25 29.796875 -36.25 Z M 25.671875 -34.296875 C 25.671875 -33.898438 25.929688 -33.703125 26.453125 -33.703125 C 26.585938 -33.578125 26.6875 -33.546875 26.75 -33.609375 C 26.8125 -33.671875 26.78125 -33.769531 26.65625 -33.90625 C 26.65625 -34.300781 26.523438 -34.5 26.265625 -34.5 C 25.867188 -34.5 25.671875 -34.429688 25.671875 -34.296875 Z M 28.21875 -32.53125 C 28.476562 -32.53125 28.609375 -32.660156 28.609375 -32.921875 C 28.609375 -33.179688 28.476562 -33.3125 28.21875 -33.3125 C 27.957031 -33.3125 27.828125 -33.179688 27.828125 -32.921875 C 27.828125 -32.660156 27.957031 -32.53125 28.21875 -32.53125 Z M 33.125 -31.953125 C 33.507812 -31.953125 33.703125 -32.015625 33.703125 -32.140625 C 33.703125 -32.273438 33.570312 -32.34375 33.3125 -32.34375 C 33.050781 -32.46875 32.789062 -32.398438 32.53125 -32.140625 C 32.53125 -32.015625 32.726562 -31.953125 33.125 -31.953125 Z M 26.265625 -29.59375 C 26.523438 -29.59375 26.75 -29.59375 26.9375 -29.59375 C 27.132812 -29.59375 27.300781 -29.660156 27.4375 -29.796875 C 27.4375 -30.179688 27.367188 -30.3125 27.234375 -30.1875 C 27.109375 -30.1875 26.914062 -30.148438 26.65625 -30.078125 C 26.394531 -30.015625 26.132812 -29.984375 25.875 -29.984375 C 25.875 -29.859375 25.9375 -29.757812 26.0625 -29.6875 C 26.195312 -29.625 26.265625 -29.59375 26.265625 -29.59375 Z M 35.28125 -26.265625 C 35.539062 -26.265625 35.671875 -26.328125 35.671875 -26.453125 C 35.535156 -26.710938 35.398438 -27.039062 35.265625 -27.4375 C 35.140625 -27.832031 34.882812 -28.160156 34.5 -28.421875 C 34.363281 -28.546875 34.164062 -28.476562 33.90625 -28.21875 C 33.90625 -28.09375 34.097656 -27.734375 34.484375 -27.140625 C 34.878906 -26.554688 35.144531 -26.265625 35.28125 -26.265625 Z M 35.078125 -22.9375 L 35.46875 -22.9375 C 35.46875 -23.0625 35.335938 -23.253906 35.078125 -23.515625 L 34.6875 -23.515625 C 34.6875 -23.128906 34.816406 -22.9375 35.078125 -22.9375 Z M 20.1875 -17.046875 C 20.445312 -16.921875 20.578125 -17.117188 20.578125 -17.640625 C 20.441406 -17.765625 20.441406 -17.890625 20.578125 -18.015625 C 20.710938 -18.148438 20.644531 -18.285156 20.375 -18.421875 C 20.113281 -18.421875 19.984375 -18.160156 19.984375 -17.640625 C 19.984375 -17.242188 20.050781 -17.046875 20.1875 -17.046875 Z M 20.1875 -17.046875 "/></g></g><g style="fill:#e70000;fill-opacity:1;"><g transform="translate(78.929446, 187.464182)"><path style="stroke:none" d="M 110.53125 -5.484375 C 110.53125 -4.703125 110.53125 -3.953125 110.53125 -3.234375 C 110.53125 -2.515625 110.597656 -1.828125 110.734375 -1.171875 C 110.859375 -0.648438 110.789062 -0.359375 110.53125 -0.296875 C 110.269531 -0.234375 110.007812 -0.132812 109.75 0 C 109.226562 0 108.050781 0 106.21875 0 C 104.394531 0 103.15625 0.0664062 102.5 0.203125 C 99.488281 0.0664062 97.066406 0 95.234375 0 C 93.410156 0 91 0 88 0 C 86.945312 -0.132812 86.320312 -0.296875 86.125 -0.484375 C 85.9375 -0.679688 85.84375 -1.238281 85.84375 -2.15625 L 85.84375 -50.953125 C 86.101562 -56.703125 86.164062 -62.382812 86.03125 -68 C 85.90625 -73.625 85.84375 -79.242188 85.84375 -84.859375 L 85.84375 -98.96875 C 85.84375 -100.40625 85.875 -101.875 85.9375 -103.375 C 86 -104.882812 86.097656 -106.289062 86.234375 -107.59375 C 86.234375 -109.8125 85.253906 -110.46875 83.296875 -109.5625 C 82.898438 -109.425781 82.703125 -109.03125 82.703125 -108.375 C 82.703125 -107.851562 82.671875 -107.296875 82.609375 -106.703125 C 82.546875 -106.117188 82.578125 -105.503906 82.703125 -104.859375 C 82.835938 -103.546875 82.804688 -102.203125 82.609375 -100.828125 C 82.410156 -99.460938 82.378906 -98.0625 82.515625 -96.625 C 82.640625 -95.707031 82.535156 -94.820312 82.203125 -93.96875 C 81.878906 -93.125 81.71875 -92.242188 81.71875 -91.328125 C 81.71875 -89.492188 81.585938 -87.628906 81.328125 -85.734375 C 81.066406 -83.847656 80.875 -81.988281 80.75 -80.15625 C 80.75 -78.851562 80.648438 -77.578125 80.453125 -76.328125 C 80.253906 -75.085938 80.222656 -73.816406 80.359375 -72.515625 C 80.359375 -71.597656 80.257812 -70.710938 80.0625 -69.859375 C 79.863281 -69.015625 79.765625 -68.132812 79.765625 -67.21875 C 79.898438 -66.039062 79.832031 -64.894531 79.5625 -63.78125 C 79.300781 -62.675781 79.238281 -61.601562 79.375 -60.5625 C 79.5 -60.300781 79.492188 -59.972656 79.359375 -59.578125 C 79.234375 -59.179688 79.109375 -58.851562 78.984375 -58.59375 C 78.847656 -56.894531 78.75 -55.226562 78.6875 -53.59375 C 78.625 -51.96875 78.460938 -50.304688 78.203125 -48.609375 C 78.066406 -46.773438 77.898438 -44.941406 77.703125 -43.109375 C 77.503906 -41.285156 77.40625 -39.457031 77.40625 -37.625 C 77.40625 -36.445312 77.304688 -35.269531 77.109375 -34.09375 C 76.921875 -32.925781 76.757812 -31.753906 76.625 -30.578125 C 76.5 -28.085938 76.304688 -25.601562 76.046875 -23.125 C 75.785156 -20.644531 75.585938 -18.097656 75.453125 -15.484375 C 75.328125 -13.265625 75.128906 -11.039062 74.859375 -8.8125 C 74.597656 -6.59375 74.335938 -4.375 74.078125 -2.15625 C 74.078125 -1.894531 74.140625 -1.566406 74.265625 -1.171875 C 74.398438 -0.785156 74.273438 -0.460938 73.890625 -0.203125 C 73.628906 -0.0664062 73.300781 0 72.90625 0 C 72.507812 0 72.117188 0 71.734375 0 C 67.160156 -0.257812 62.519531 -0.320312 57.8125 -0.1875 C 53.113281 -0.0625 48.476562 0 43.90625 0 C 42.988281 0 42.460938 -0.457031 42.328125 -1.375 C 42.066406 -2.414062 41.9375 -3.523438 41.9375 -4.703125 C 41.9375 -5.878906 41.875 -6.988281 41.75 -8.03125 C 41.21875 -11.425781 40.851562 -14.789062 40.65625 -18.125 C 40.46875 -21.457031 40.242188 -24.757812 39.984375 -28.03125 C 39.847656 -30.644531 39.648438 -33.289062 39.390625 -35.96875 C 39.128906 -38.644531 38.867188 -41.222656 38.609375 -43.703125 C 38.347656 -46.316406 38.085938 -48.894531 37.828125 -51.4375 C 37.566406 -53.988281 37.367188 -56.570312 37.234375 -59.1875 C 37.234375 -60.882812 37.039062 -62.582031 36.65625 -64.28125 C 36.519531 -65.0625 36.414062 -65.875 36.34375 -66.71875 C 36.28125 -67.570312 36.1875 -68.394531 36.0625 -69.1875 C 36.0625 -70.882812 35.992188 -72.582031 35.859375 -74.28125 C 35.734375 -75.976562 35.539062 -77.675781 35.28125 -79.375 C 35.144531 -80.414062 35.078125 -81.554688 35.078125 -82.796875 C 35.078125 -84.046875 35.015625 -85.253906 34.890625 -86.421875 L 34.890625 -87.21875 C 34.359375 -89.4375 34.0625 -91.6875 34 -93.96875 C 33.9375 -96.257812 33.835938 -98.515625 33.703125 -100.734375 C 33.703125 -102.171875 33.632812 -103.570312 33.5 -104.9375 C 33.375 -106.3125 33.378906 -107.65625 33.515625 -108.96875 C 33.640625 -109.363281 33.441406 -109.625 32.921875 -109.75 L 31.15625 -109.75 C 30.632812 -109.75 30.375 -109.421875 30.375 -108.765625 C 30.507812 -107.585938 30.507812 -106.410156 30.375 -105.234375 C 30.25 -104.066406 30.25 -102.894531 30.375 -101.71875 C 30.632812 -98.1875 30.695312 -94.65625 30.5625 -91.125 C 30.4375 -87.601562 30.441406 -84.078125 30.578125 -80.546875 C 30.703125 -77.546875 30.734375 -74.507812 30.671875 -71.4375 C 30.609375 -68.363281 30.578125 -65.328125 30.578125 -62.328125 L 30.578125 -2.15625 C 30.578125 -1.113281 30.507812 -0.492188 30.375 -0.296875 C 30.25 -0.0976562 29.53125 0 28.21875 0 C 24.695312 0.394531 21.171875 0.492188 17.640625 0.296875 C 14.109375 0.0976562 10.582031 0 7.0625 0 C 6.007812 0 5.550781 -0.519531 5.6875 -1.5625 C 5.945312 -3 6.039062 -4.40625 5.96875 -5.78125 C 5.90625 -7.15625 5.8125 -8.5625 5.6875 -10 C 5.6875 -10.90625 5.71875 -11.785156 5.78125 -12.640625 C 5.84375 -13.492188 5.875 -14.375 5.875 -15.28125 L 5.875 -25.484375 C 5.75 -27.046875 5.71875 -28.644531 5.78125 -30.28125 C 5.84375 -31.914062 5.8125 -33.515625 5.6875 -35.078125 C 5.6875 -37.035156 5.71875 -38.960938 5.78125 -40.859375 C 5.84375 -42.753906 5.875 -44.679688 5.875 -46.640625 C 5.875 -48.078125 5.875 -49.578125 5.875 -51.140625 C 5.875 -52.710938 5.8125 -54.21875 5.6875 -55.65625 C 5.550781 -56.3125 5.582031 -56.898438 5.78125 -57.421875 C 5.976562 -57.941406 6.007812 -58.460938 5.875 -58.984375 C 5.75 -60.035156 5.6875 -61.050781 5.6875 -62.03125 C 5.6875 -63.007812 5.75 -63.957031 5.875 -64.875 C 6.007812 -65.914062 6.039062 -67.023438 5.96875 -68.203125 C 5.90625 -69.378906 5.8125 -70.488281 5.6875 -71.53125 C 5.550781 -73.75 5.613281 -75.96875 5.875 -78.1875 C 6.132812 -80.414062 6.070312 -82.640625 5.6875 -84.859375 C 5.550781 -85.515625 5.582031 -86.132812 5.78125 -86.71875 C 5.976562 -87.3125 6.007812 -87.929688 5.875 -88.578125 C 5.875 -90.015625 5.84375 -91.382812 5.78125 -92.6875 C 5.71875 -94 5.6875 -95.3125 5.6875 -96.625 C 5.6875 -97.269531 5.75 -97.882812 5.875 -98.46875 C 6.007812 -99.0625 6.007812 -99.617188 5.875 -100.140625 C 5.75 -101.847656 5.75 -103.484375 5.875 -105.046875 C 6.007812 -106.617188 6.007812 -108.253906 5.875 -109.953125 C 5.875 -110.992188 5.84375 -112.066406 5.78125 -113.171875 C 5.71875 -114.285156 5.6875 -115.429688 5.6875 -116.609375 C 5.6875 -118.304688 5.6875 -120.003906 5.6875 -121.703125 C 5.6875 -123.398438 5.75 -125.097656 5.875 -126.796875 C 6.007812 -127.847656 6.039062 -128.894531 5.96875 -129.9375 C 5.90625 -130.976562 5.8125 -131.957031 5.6875 -132.875 C 5.550781 -133.53125 5.582031 -134.117188 5.78125 -134.640625 C 5.976562 -135.160156 5.945312 -135.679688 5.6875 -136.203125 C 5.6875 -136.734375 6.078125 -137 6.859375 -137 C 8.296875 -136.863281 9.765625 -136.859375 11.265625 -136.984375 C 12.765625 -137.117188 14.234375 -137.1875 15.671875 -137.1875 C 17.898438 -137.1875 20.15625 -137.085938 22.4375 -136.890625 C 24.726562 -136.691406 27.046875 -136.859375 29.390625 -137.390625 C 29.921875 -137.390625 30.445312 -137.257812 30.96875 -137 C 32.40625 -136.863281 33.742188 -136.828125 34.984375 -136.890625 C 36.222656 -136.960938 37.5 -137.0625 38.8125 -137.1875 C 39.332031 -137.320312 39.785156 -137.289062 40.171875 -137.09375 C 40.566406 -136.894531 41.023438 -136.863281 41.546875 -137 C 42.722656 -137 43.898438 -137 45.078125 -137 C 46.253906 -137 47.429688 -137.128906 48.609375 -137.390625 C 49.648438 -137.515625 50.171875 -137.054688 50.171875 -136.015625 C 50.035156 -134.703125 50.097656 -133.328125 50.359375 -131.890625 C 50.628906 -130.453125 50.765625 -129.015625 50.765625 -127.578125 C 50.765625 -124.578125 50.957031 -121.578125 51.34375 -118.578125 C 51.601562 -116.484375 51.796875 -114.320312 51.921875 -112.09375 C 52.054688 -109.875 52.191406 -107.65625 52.328125 -105.4375 L 52.921875 -97.203125 C 52.921875 -96.679688 52.921875 -96.160156 52.921875 -95.640625 C 52.921875 -95.117188 52.984375 -94.53125 53.109375 -93.875 C 53.367188 -93.09375 53.46875 -92.242188 53.40625 -91.328125 C 53.34375 -90.410156 53.375 -89.492188 53.5 -88.578125 C 53.757812 -86.492188 53.921875 -84.375 53.984375 -82.21875 C 54.054688 -80.0625 54.222656 -77.875 54.484375 -75.65625 C 54.742188 -73.425781 54.972656 -71.164062 55.171875 -68.875 C 55.367188 -66.59375 55.597656 -64.34375 55.859375 -62.125 C 55.984375 -61.207031 56.046875 -60.289062 56.046875 -59.375 C 56.046875 -58.46875 56.046875 -57.554688 56.046875 -56.640625 C 56.046875 -55.066406 56.242188 -53.5 56.640625 -51.9375 C 56.898438 -51.414062 56.960938 -50.859375 56.828125 -50.265625 C 56.703125 -49.679688 56.640625 -49.128906 56.640625 -48.609375 C 56.640625 -47.171875 56.769531 -45.734375 57.03125 -44.296875 C 57.289062 -42.859375 57.222656 -41.421875 56.828125 -39.984375 C 56.703125 -39.847656 56.703125 -39.585938 56.828125 -39.203125 C 57.097656 -37.628906 57.132812 -36.054688 56.9375 -34.484375 C 56.738281 -32.921875 56.769531 -31.359375 57.03125 -29.796875 C 57.289062 -28.484375 57.289062 -27.175781 57.03125 -25.875 C 56.894531 -25.082031 57.15625 -24.6875 57.8125 -24.6875 C 59.25 -24.5625 60.066406 -24.628906 60.265625 -24.890625 C 60.460938 -25.148438 60.429688 -25.929688 60.171875 -27.234375 C 60.035156 -27.765625 60.03125 -28.253906 60.15625 -28.703125 C 60.289062 -29.160156 60.359375 -29.65625 60.359375 -30.1875 C 60.234375 -32.53125 60.203125 -34.878906 60.265625 -37.234375 C 60.328125 -39.585938 60.359375 -41.941406 60.359375 -44.296875 C 60.234375 -45.859375 60.203125 -47.457031 60.265625 -49.09375 C 60.328125 -50.726562 60.554688 -52.328125 60.953125 -53.890625 C 61.078125 -54.285156 61.140625 -54.710938 61.140625 -55.171875 C 61.140625 -55.628906 61.140625 -56.117188 61.140625 -56.640625 C 61.015625 -57.816406 61.050781 -58.992188 61.25 -60.171875 C 61.445312 -61.347656 61.609375 -62.519531 61.734375 -63.6875 C 61.867188 -65.257812 62 -66.796875 62.125 -68.296875 C 62.257812 -69.796875 62.328125 -71.265625 62.328125 -72.703125 C 62.453125 -74.535156 62.613281 -76.429688 62.8125 -78.390625 C 63.007812 -80.347656 63.171875 -82.242188 63.296875 -84.078125 C 63.429688 -86.429688 63.628906 -88.75 63.890625 -91.03125 C 64.148438 -93.320312 64.28125 -95.578125 64.28125 -97.796875 C 64.28125 -98.972656 64.378906 -100.113281 64.578125 -101.21875 C 64.773438 -102.332031 64.875 -103.410156 64.875 -104.453125 C 64.875 -105.890625 64.96875 -107.328125 65.15625 -108.765625 C 65.351562 -110.203125 65.390625 -111.578125 65.265625 -112.890625 C 65.265625 -114.328125 65.359375 -115.796875 65.546875 -117.296875 C 65.742188 -118.796875 65.910156 -120.265625 66.046875 -121.703125 L 66.640625 -127.984375 C 66.765625 -129.285156 66.859375 -130.554688 66.921875 -131.796875 C 66.992188 -133.035156 67.03125 -134.3125 67.03125 -135.625 C 67.15625 -136.539062 67.675781 -137 68.59375 -137 C 69.632812 -137 70.675781 -136.960938 71.71875 -136.890625 C 72.769531 -136.828125 73.816406 -136.863281 74.859375 -137 C 75.648438 -137 76.4375 -137.03125 77.21875 -137.09375 C 78 -137.15625 78.78125 -137.1875 79.5625 -137.1875 C 80.21875 -137.1875 80.875 -137.21875 81.53125 -137.28125 C 82.1875 -137.351562 82.835938 -137.257812 83.484375 -137 C 84.140625 -136.863281 84.726562 -136.863281 85.25 -137 C 87.207031 -137.382812 89.164062 -137.445312 91.125 -137.1875 C 93.09375 -136.925781 95.054688 -136.863281 97.015625 -137 C 97.660156 -137 98.34375 -137 99.0625 -137 C 99.78125 -137 100.40625 -137.0625 100.9375 -137.1875 C 101.582031 -137.445312 102.171875 -137.445312 102.703125 -137.1875 C 103.742188 -137.0625 104.816406 -137 105.921875 -137 C 107.035156 -137 108.113281 -137 109.15625 -137 C 110.070312 -137 110.53125 -136.539062 110.53125 -135.625 C 110.40625 -133.132812 110.375 -130.710938 110.4375 -128.359375 C 110.5 -126.015625 110.53125 -123.601562 110.53125 -121.125 C 110.53125 -119.03125 110.5625 -116.867188 110.625 -114.640625 C 110.695312 -112.421875 110.734375 -110.203125 110.734375 -107.984375 C 110.734375 -106.421875 110.664062 -104.820312 110.53125 -103.1875 C 110.40625 -101.550781 110.40625 -99.953125 110.53125 -98.390625 C 110.789062 -97.078125 110.820312 -95.800781 110.625 -94.5625 C 110.4375 -93.320312 110.472656 -91.984375 110.734375 -90.546875 C 110.859375 -89.890625 110.820312 -89.171875 110.625 -88.390625 C 110.4375 -87.609375 110.40625 -86.820312 110.53125 -86.03125 C 110.53125 -84.207031 110.59375 -82.378906 110.71875 -80.546875 C 110.851562 -78.722656 110.859375 -76.894531 110.734375 -75.0625 C 110.597656 -73.226562 110.5 -71.394531 110.4375 -69.5625 C 110.375 -67.738281 110.40625 -65.914062 110.53125 -64.09375 C 110.664062 -62 110.664062 -59.9375 110.53125 -57.90625 C 110.40625 -55.882812 110.40625 -53.828125 110.53125 -51.734375 C 110.53125 -50.828125 110.5625 -49.878906 110.625 -48.890625 C 110.695312 -47.910156 110.734375 -46.96875 110.734375 -46.0625 C 110.734375 -45.144531 110.734375 -44.257812 110.734375 -43.40625 C 110.734375 -42.5625 110.664062 -41.742188 110.53125 -40.953125 C 110.53125 -39.648438 110.53125 -38.3125 110.53125 -36.9375 C 110.53125 -35.570312 110.597656 -34.171875 110.734375 -32.734375 C 110.859375 -31.941406 110.890625 -31.1875 110.828125 -30.46875 C 110.765625 -29.75 110.734375 -29 110.734375 -28.21875 C 110.597656 -26.257812 110.597656 -24.300781 110.734375 -22.34375 C 110.734375 -21.820312 110.695312 -21.332031 110.625 -20.875 C 110.5625 -20.414062 110.53125 -19.925781 110.53125 -19.40625 C 110.40625 -18.351562 110.40625 -17.269531 110.53125 -16.15625 C 110.664062 -15.050781 110.734375 -13.910156 110.734375 -12.734375 C 110.597656 -11.554688 110.53125 -10.347656 110.53125 -9.109375 C 110.53125 -7.867188 110.53125 -6.660156 110.53125 -5.484375 Z M 104.453125 -118.578125 C 104.328125 -118.441406 104.460938 -118.375 104.859375 -118.375 C 105.242188 -118.769531 105.375 -119.03125 105.25 -119.15625 C 105.25 -119.289062 105.117188 -119.359375 104.859375 -119.359375 C 104.585938 -119.097656 104.453125 -118.835938 104.453125 -118.578125 Z M 97.59375 -115.234375 C 97.332031 -115.234375 97.203125 -115.101562 97.203125 -114.84375 L 97.40625 -114.65625 L 97.796875 -115.046875 C 97.796875 -115.171875 97.726562 -115.234375 97.59375 -115.234375 Z M 20.578125 -114.453125 C 20.316406 -114.191406 20.25 -113.992188 20.375 -113.859375 C 20.375 -113.597656 20.507812 -113.46875 20.78125 -113.46875 C 21.039062 -113.46875 21.171875 -113.664062 21.171875 -114.0625 C 21.171875 -114.320312 20.972656 -114.453125 20.578125 -114.453125 Z M 102.5 -111.125 C 102.363281 -111.125 102.164062 -110.992188 101.90625 -110.734375 C 101.90625 -110.472656 102.035156 -110.34375 102.296875 -110.34375 C 102.566406 -110.082031 102.703125 -110.144531 102.703125 -110.53125 C 102.703125 -110.664062 102.664062 -110.796875 102.59375 -110.921875 C 102.53125 -111.054688 102.5 -111.125 102.5 -111.125 Z M 99.5625 -109.359375 C 99.5625 -109.359375 99.429688 -109.226562 99.171875 -108.96875 C 99.429688 -108.832031 99.59375 -108.695312 99.65625 -108.5625 C 99.71875 -108.4375 99.816406 -108.3125 99.953125 -108.1875 C 100.078125 -108.050781 100.171875 -108.015625 100.234375 -108.078125 C 100.304688 -108.148438 100.273438 -108.25 100.140625 -108.375 C 100.015625 -108.507812 99.953125 -108.671875 99.953125 -108.859375 C 99.953125 -109.054688 99.820312 -109.222656 99.5625 -109.359375 Z M 101.515625 -107 C 101.390625 -106.613281 101.617188 -106.453125 102.203125 -106.515625 C 102.796875 -106.578125 102.828125 -106.285156 102.296875 -105.640625 C 102.429688 -105.503906 102.53125 -105.4375 102.59375 -105.4375 C 102.664062 -105.4375 102.703125 -105.4375 102.703125 -105.4375 C 103.085938 -105.832031 103.148438 -106.351562 102.890625 -107 C 102.890625 -107.269531 102.691406 -107.40625 102.296875 -107.40625 C 101.773438 -107.132812 101.515625 -107 101.515625 -107 Z M 100.140625 -107 C 99.097656 -107 98.378906 -106.867188 97.984375 -106.609375 C 97.722656 -106.347656 97.59375 -106.15625 97.59375 -106.03125 C 97.851562 -105.894531 98.050781 -105.894531 98.1875 -106.03125 C 98.445312 -106.289062 98.804688 -106.351562 99.265625 -106.21875 C 99.722656 -106.09375 100.015625 -106.222656 100.140625 -106.609375 C 100.273438 -106.742188 100.304688 -106.84375 100.234375 -106.90625 C 100.171875 -106.96875 100.140625 -107 100.140625 -107 Z M 96.03125 -106.03125 C 95.632812 -106.03125 95.4375 -105.898438 95.4375 -105.640625 C 95.4375 -105.117188 95.570312 -104.859375 95.84375 -104.859375 C 96.101562 -104.859375 96.265625 -104.953125 96.328125 -105.140625 C 96.390625 -105.335938 96.488281 -105.503906 96.625 -105.640625 C 96.625 -105.898438 96.425781 -106.03125 96.03125 -106.03125 Z M 103.484375 -103.484375 C 103.742188 -103.742188 103.675781 -103.875 103.28125 -103.875 C 102.757812 -103.875 102.5 -103.675781 102.5 -103.28125 C 102.5 -103.15625 102.628906 -103.023438 102.890625 -102.890625 Z M 92.890625 -102.296875 C 92.503906 -102.296875 92.441406 -102.164062 92.703125 -101.90625 C 92.703125 -101.519531 92.894531 -101.328125 93.28125 -101.328125 C 93.28125 -101.328125 93.414062 -101.457031 93.6875 -101.71875 C 93.550781 -101.84375 93.285156 -102.035156 92.890625 -102.296875 Z M 101.328125 -101.125 C 101.066406 -101.644531 100.804688 -101.84375 100.546875 -101.71875 C 100.148438 -101.582031 99.953125 -101.382812 99.953125 -101.125 C 100.347656 -101.257812 100.738281 -101.128906 101.125 -100.734375 C 101.519531 -100.734375 101.585938 -100.863281 101.328125 -101.125 Z M 95.25 -94.265625 C 94.851562 -94.003906 94.523438 -93.675781 94.265625 -93.28125 C 94.265625 -93.28125 94.296875 -93.25 94.359375 -93.1875 C 94.429688 -93.125 94.46875 -93.023438 94.46875 -92.890625 L 95.640625 -94.078125 C 95.773438 -94.203125 95.644531 -94.265625 95.25 -94.265625 Z M 19.59375 -93.875 C 19.59375 -94.007812 19.5625 -94.039062 19.5 -93.96875 C 19.4375 -93.90625 19.40625 -93.875 19.40625 -93.875 C 19.53125 -93.75 19.691406 -93.488281 19.890625 -93.09375 C 20.085938 -92.695312 20.25 -92.757812 20.375 -93.28125 C 20.375 -93.15625 20.40625 -93.125 20.46875 -93.1875 C 20.539062 -93.25 20.578125 -93.28125 20.578125 -93.28125 C 20.578125 -93.550781 20.476562 -93.6875 20.28125 -93.6875 C 20.082031 -93.6875 19.851562 -93.75 19.59375 -93.875 Z M 42.53125 -91.71875 C 42.789062 -91.71875 42.789062 -91.847656 42.53125 -92.109375 C 42.394531 -92.242188 42.328125 -92.441406 42.328125 -92.703125 C 42.328125 -92.960938 42.195312 -93.09375 41.9375 -93.09375 C 41.8125 -93.09375 41.75 -92.894531 41.75 -92.5 C 41.75 -91.851562 42.007812 -91.59375 42.53125 -91.71875 Z M 41.75 -89.5625 C 41.75 -89.4375 41.878906 -89.375 42.140625 -89.375 C 42.265625 -89.375 42.328125 -89.503906 42.328125 -89.765625 C 42.328125 -89.890625 42.195312 -89.953125 41.9375 -89.953125 C 41.675781 -89.691406 41.613281 -89.5625 41.75 -89.5625 Z M 104.65625 -89.171875 L 103.875 -89.171875 C 103.875 -89.046875 103.9375 -88.945312 104.0625 -88.875 C 104.195312 -88.8125 104.328125 -88.710938 104.453125 -88.578125 C 104.722656 -88.578125 104.921875 -88.710938 105.046875 -88.984375 C 105.046875 -89.109375 104.914062 -89.171875 104.65625 -89.171875 Z M 93.875 -87.40625 C 93.875 -87.664062 93.8125 -87.796875 93.6875 -87.796875 C 93.550781 -87.796875 93.484375 -87.664062 93.484375 -87.40625 L 93.484375 -86.828125 C 93.742188 -86.828125 93.875 -87.019531 93.875 -87.40625 Z M 20.375 -70.546875 C 19.726562 -70.546875 19.40625 -70.414062 19.40625 -70.15625 C 19.789062 -69.507812 20.179688 -69.25 20.578125 -69.375 C 20.710938 -69.375 20.78125 -69.570312 20.78125 -69.96875 C 21.039062 -70.882812 21.003906 -71.375 20.671875 -71.4375 C 20.347656 -71.5 20.25 -71.203125 20.375 -70.546875 Z M 25.671875 -70.15625 C 25.929688 -70.15625 26.0625 -70.285156 26.0625 -70.546875 C 25.9375 -70.941406 25.546875 -71.140625 24.890625 -71.140625 L 24.5 -70.75 C 24.625 -70.613281 24.816406 -70.515625 25.078125 -70.453125 C 25.347656 -70.390625 25.546875 -70.289062 25.671875 -70.15625 Z M 23.125 -68.203125 C 23.257812 -68.203125 23.390625 -68.363281 23.515625 -68.6875 C 23.648438 -69.019531 23.78125 -69.25 23.90625 -69.375 C 23.78125 -69.769531 23.585938 -69.96875 23.328125 -69.96875 C 22.929688 -70.226562 22.734375 -70.097656 22.734375 -69.578125 C 22.734375 -69.441406 22.765625 -69.175781 22.828125 -68.78125 C 22.898438 -68.394531 23 -68.203125 23.125 -68.203125 Z M 17.4375 -67.421875 C 17.695312 -67.546875 17.796875 -67.738281 17.734375 -68 C 17.671875 -68.269531 17.703125 -68.535156 17.828125 -68.796875 C 17.960938 -68.796875 17.992188 -68.859375 17.921875 -68.984375 C 17.859375 -69.117188 17.765625 -69.1875 17.640625 -69.1875 C 16.597656 -68.925781 16.078125 -68.398438 16.078125 -67.609375 C 16.078125 -67.484375 16.269531 -67.382812 16.65625 -67.3125 C 17.050781 -67.25 17.3125 -67.285156 17.4375 -67.421875 Z M 22.34375 -66.640625 C 22.738281 -66.640625 22.769531 -66.960938 22.4375 -67.609375 C 22.113281 -68.265625 21.953125 -68.660156 21.953125 -68.796875 C 21.816406 -69.179688 21.648438 -69.273438 21.453125 -69.078125 C 21.265625 -68.890625 21.101562 -68.796875 20.96875 -68.796875 C 20.84375 -68.660156 20.644531 -68.523438 20.375 -68.390625 C 20.113281 -68.265625 19.851562 -68.269531 19.59375 -68.40625 C 19.207031 -68.40625 19.015625 -68.207031 19.015625 -67.8125 C 19.015625 -67.675781 19.207031 -67.050781 19.59375 -65.9375 C 19.988281 -64.832031 20.316406 -64.347656 20.578125 -64.484375 C 20.835938 -64.484375 21.03125 -64.90625 21.15625 -65.75 C 21.289062 -66.601562 21.6875 -66.898438 22.34375 -66.640625 Z M 42.140625 -68.40625 C 42.398438 -68.40625 42.53125 -68.535156 42.53125 -68.796875 C 42.53125 -68.921875 42.398438 -68.984375 42.140625 -68.984375 C 42.003906 -68.984375 41.9375 -68.851562 41.9375 -68.59375 Z M 12.9375 -66.828125 C 13.195312 -66.828125 13.390625 -67.023438 13.515625 -67.421875 C 13.515625 -67.679688 13.382812 -67.679688 13.125 -67.421875 L 12.546875 -66.828125 C 12.546875 -66.566406 12.675781 -66.566406 12.9375 -66.828125 Z M 99.359375 -54.09375 C 98.972656 -54.09375 98.910156 -53.960938 99.171875 -53.703125 C 99.296875 -53.566406 99.390625 -53.367188 99.453125 -53.109375 C 99.523438 -52.847656 99.691406 -52.65625 99.953125 -52.53125 C 100.078125 -52.53125 100.140625 -52.660156 100.140625 -52.921875 C 100.140625 -53.179688 100.140625 -53.441406 100.140625 -53.703125 C 100.140625 -53.960938 99.878906 -54.09375 99.359375 -54.09375 Z M 97.796875 -52.328125 C 97.796875 -52.066406 98.054688 -51.804688 98.578125 -51.546875 C 98.835938 -51.546875 98.96875 -51.609375 98.96875 -51.734375 C 99.101562 -52.128906 99.039062 -52.359375 98.78125 -52.421875 C 98.519531 -52.492188 98.320312 -52.59375 98.1875 -52.71875 C 97.925781 -52.71875 97.796875 -52.585938 97.796875 -52.328125 Z M 103.875 -48.40625 C 103.613281 -48.664062 103.484375 -48.796875 103.484375 -48.796875 C 103.222656 -48.796875 103.09375 -48.664062 103.09375 -48.40625 C 103.351562 -48.144531 103.484375 -48.015625 103.484375 -48.015625 C 103.484375 -48.015625 103.613281 -48.144531 103.875 -48.40625 Z M 69.765625 -46.0625 C 70.023438 -46.0625 70.15625 -46.191406 70.15625 -46.453125 C 70.15625 -46.835938 70.023438 -47.03125 69.765625 -47.03125 C 69.503906 -47.03125 69.375 -46.898438 69.375 -46.640625 C 69.375 -46.253906 69.503906 -46.0625 69.765625 -46.0625 Z M 101.90625 -45.46875 C 101.78125 -45.207031 101.585938 -44.910156 101.328125 -44.578125 C 101.066406 -44.253906 101 -43.832031 101.125 -43.3125 C 101 -43.175781 100.738281 -43.175781 100.34375 -43.3125 C 99.945312 -43.445312 99.878906 -43.1875 100.140625 -42.53125 C 100.273438 -42.132812 100.210938 -41.675781 99.953125 -41.15625 C 99.816406 -40.757812 99.878906 -40.5625 100.140625 -40.5625 C 100.410156 -40.695312 100.640625 -40.828125 100.828125 -40.953125 C 101.023438 -41.085938 101.191406 -41.222656 101.328125 -41.359375 C 101.585938 -41.484375 101.648438 -41.644531 101.515625 -41.84375 C 101.390625 -42.039062 101.328125 -42.203125 101.328125 -42.328125 C 101.191406 -42.585938 101.125 -42.984375 101.125 -43.515625 C 101.382812 -43.773438 101.578125 -44.066406 101.703125 -44.390625 C 101.835938 -44.710938 102.101562 -44.941406 102.5 -45.078125 C 102.632812 -45.078125 102.734375 -45.140625 102.796875 -45.265625 C 102.859375 -45.398438 102.828125 -45.535156 102.703125 -45.671875 C 102.429688 -45.796875 102.164062 -45.726562 101.90625 -45.46875 Z M 94.65625 -41.546875 C 94.789062 -41.148438 94.597656 -40.890625 94.078125 -40.765625 C 93.941406 -40.628906 93.773438 -40.5625 93.578125 -40.5625 C 93.378906 -40.5625 93.347656 -40.429688 93.484375 -40.171875 C 93.617188 -40.046875 93.78125 -39.984375 93.96875 -39.984375 C 94.164062 -39.984375 94.332031 -39.984375 94.46875 -39.984375 C 94.851562 -40.242188 95.175781 -40.703125 95.4375 -41.359375 C 95.4375 -41.617188 95.238281 -41.910156 94.84375 -42.234375 C 94.457031 -42.554688 94.132812 -42.71875 93.875 -42.71875 C 93.476562 -42.59375 93.21875 -42.332031 93.09375 -41.9375 C 93.09375 -41.550781 93.351562 -41.488281 93.875 -41.75 C 94.394531 -41.75 94.65625 -41.679688 94.65625 -41.546875 Z M 98.578125 -41.9375 C 98.316406 -41.9375 98.1875 -41.742188 98.1875 -41.359375 C 98.1875 -41.222656 98.21875 -41.085938 98.28125 -40.953125 C 98.351562 -40.828125 98.390625 -40.765625 98.390625 -40.765625 C 98.648438 -40.765625 98.742188 -40.863281 98.671875 -41.0625 C 98.609375 -41.257812 98.644531 -41.421875 98.78125 -41.546875 C 98.78125 -41.804688 98.710938 -41.9375 98.578125 -41.9375 Z M 97.203125 -41.75 C 96.941406 -41.75 96.8125 -41.617188 96.8125 -41.359375 C 96.8125 -40.960938 96.941406 -40.765625 97.203125 -40.765625 C 97.335938 -40.765625 97.40625 -40.894531 97.40625 -41.15625 C 97.40625 -41.414062 97.335938 -41.613281 97.203125 -41.75 Z M 101.90625 -37.234375 C 101.644531 -37.628906 101.515625 -38.15625 101.515625 -38.8125 C 102.035156 -38.8125 102.5625 -39.203125 103.09375 -39.984375 C 103.09375 -39.847656 103.125 -39.78125 103.1875 -39.78125 C 103.25 -39.78125 103.28125 -39.78125 103.28125 -39.78125 C 103.539062 -39.257812 103.800781 -39.066406 104.0625 -39.203125 C 104.320312 -39.460938 104.257812 -39.722656 103.875 -39.984375 C 103.738281 -40.367188 103.601562 -40.492188 103.46875 -40.359375 C 103.34375 -40.234375 103.21875 -40.109375 103.09375 -39.984375 C 102.175781 -39.722656 101.648438 -39.332031 101.515625 -38.8125 C 101.253906 -39.070312 101.0625 -39.203125 100.9375 -39.203125 C 100.800781 -39.328125 100.734375 -39.195312 100.734375 -38.8125 C 100.734375 -37.757812 100.929688 -36.710938 101.328125 -35.671875 C 101.585938 -35.015625 101.457031 -34.625 100.9375 -34.5 C 100.539062 -34.226562 100.472656 -34.03125 100.734375 -33.90625 C 101.128906 -33.769531 101.359375 -33.472656 101.421875 -33.015625 C 101.484375 -32.566406 101.773438 -32.40625 102.296875 -32.53125 C 102.828125 -32.53125 102.894531 -32.726562 102.5 -33.125 C 101.976562 -33.507812 101.976562 -34.097656 102.5 -34.890625 C 102.632812 -35.148438 102.734375 -35.410156 102.796875 -35.671875 C 102.859375 -35.929688 103.019531 -36.191406 103.28125 -36.453125 C 103.675781 -36.847656 103.804688 -37.175781 103.671875 -37.4375 C 103.410156 -37.695312 103.019531 -37.566406 102.5 -37.046875 C 102.363281 -36.910156 102.164062 -36.972656 101.90625 -37.234375 Z M 98.78125 -39.78125 C 98.519531 -39.78125 98.390625 -39.71875 98.390625 -39.59375 C 98.390625 -39.332031 98.519531 -39.203125 98.78125 -39.203125 C 98.78125 -39.203125 98.910156 -39.332031 99.171875 -39.59375 C 99.171875 -39.71875 99.039062 -39.78125 98.78125 -39.78125 Z M 105.640625 -38.8125 C 105.640625 -39.195312 105.507812 -39.457031 105.25 -39.59375 C 104.988281 -39.59375 104.859375 -39.394531 104.859375 -39 C 104.984375 -38.875 105.046875 -38.742188 105.046875 -38.609375 C 105.046875 -38.472656 105.113281 -38.40625 105.25 -38.40625 C 105.375 -38.40625 105.46875 -38.472656 105.53125 -38.609375 C 105.601562 -38.742188 105.640625 -38.8125 105.640625 -38.8125 Z M 91.921875 -39 C 91.785156 -39 91.71875 -38.929688 91.71875 -38.796875 C 91.71875 -38.671875 91.71875 -38.609375 91.71875 -38.609375 C 91.71875 -38.210938 91.785156 -38.015625 91.921875 -38.015625 C 92.046875 -38.148438 92.109375 -38.414062 92.109375 -38.8125 C 92.109375 -38.8125 92.109375 -38.875 92.109375 -39 C 92.109375 -39.132812 92.046875 -39.132812 91.921875 -39 Z M 97.015625 -36.0625 C 96.878906 -36.0625 96.8125 -35.863281 96.8125 -35.46875 C 97.207031 -35.207031 97.40625 -35.078125 97.40625 -35.078125 C 97.789062 -35.335938 98.082031 -35.398438 98.28125 -35.265625 C 98.476562 -35.140625 98.707031 -34.945312 98.96875 -34.6875 C 99.226562 -34.425781 99.425781 -34.492188 99.5625 -34.890625 C 99.6875 -35.148438 99.585938 -35.472656 99.265625 -35.859375 C 98.941406 -36.253906 98.648438 -36.453125 98.390625 -36.453125 C 98.253906 -36.316406 98.054688 -36.25 97.796875 -36.25 C 97.535156 -36.25 97.273438 -36.1875 97.015625 -36.0625 Z M 104.265625 -35.28125 C 104.003906 -34.757812 104.066406 -34.429688 104.453125 -34.296875 C 104.847656 -34.160156 105.113281 -33.960938 105.25 -33.703125 C 105.375 -33.960938 105.367188 -34.222656 105.234375 -34.484375 C 105.109375 -34.753906 104.984375 -35.019531 104.859375 -35.28125 C 104.859375 -35.539062 104.722656 -35.671875 104.453125 -35.671875 C 104.453125 -35.671875 104.421875 -35.632812 104.359375 -35.5625 C 104.296875 -35.5 104.265625 -35.40625 104.265625 -35.28125 Z M 106.609375 -34.296875 C 106.347656 -34.429688 106.148438 -34.363281 106.015625 -34.09375 C 105.890625 -33.832031 105.695312 -33.703125 105.4375 -33.703125 C 105.957031 -33.179688 106.347656 -33.3125 106.609375 -34.09375 Z M 92.703125 -32.34375 C 92.703125 -31.945312 92.703125 -31.75 92.703125 -31.75 C 92.828125 -31.613281 93.019531 -31.679688 93.28125 -31.953125 C 93.550781 -32.210938 93.75 -32.40625 93.875 -32.53125 C 94.007812 -32.664062 94.207031 -32.796875 94.46875 -32.921875 L 95.046875 -32.53125 C 95.304688 -32.40625 95.796875 -32.503906 96.515625 -32.828125 C 97.234375 -33.148438 97.660156 -33.441406 97.796875 -33.703125 C 98.191406 -34.097656 98.191406 -34.296875 97.796875 -34.296875 C 97.140625 -34.160156 96.484375 -34.0625 95.828125 -34 C 95.179688 -33.9375 94.53125 -33.90625 93.875 -33.90625 L 93.6875 -33.703125 C 93.414062 -33.054688 93.085938 -32.601562 92.703125 -32.34375 Z M 100.546875 -32.34375 C 100.410156 -32.601562 100.082031 -32.734375 99.5625 -32.734375 C 99.039062 -32.734375 98.910156 -32.601562 99.171875 -32.34375 C 99.296875 -32.082031 99.6875 -31.953125 100.34375 -31.953125 C 100.34375 -31.816406 100.375 -31.8125 100.4375 -31.9375 C 100.507812 -32.070312 100.546875 -32.207031 100.546875 -32.34375 Z M 103.671875 -31.546875 C 103.546875 -31.546875 103.445312 -31.578125 103.375 -31.640625 C 103.3125 -31.710938 103.21875 -31.75 103.09375 -31.75 L 102.703125 -31.75 C 102.703125 -31.613281 102.894531 -31.546875 103.28125 -31.546875 C 103.28125 -31.285156 103.410156 -31.285156 103.671875 -31.546875 Z M 95.84375 -29 C 96.226562 -28.738281 96.613281 -28.707031 97 -28.90625 C 97.394531 -29.101562 97.789062 -29.203125 98.1875 -29.203125 C 98.582031 -29.203125 98.78125 -29.53125 98.78125 -30.1875 C 99.300781 -30.050781 99.691406 -29.816406 99.953125 -29.484375 C 100.210938 -29.160156 100.472656 -28.804688 100.734375 -28.421875 C 100.992188 -28.160156 101.191406 -28.09375 101.328125 -28.21875 C 101.972656 -29.132812 102.035156 -29.984375 101.515625 -30.765625 C 101.390625 -31.160156 101.289062 -31.160156 101.21875 -30.765625 C 101.15625 -30.378906 100.992188 -30.25 100.734375 -30.375 C 100.472656 -30.507812 100.144531 -30.578125 99.75 -30.578125 C 99.226562 -30.703125 98.90625 -30.570312 98.78125 -30.1875 C 98.25 -30.1875 97.722656 -30.21875 97.203125 -30.28125 C 96.679688 -30.34375 96.226562 -30.046875 95.84375 -29.390625 C 95.84375 -29.265625 95.773438 -29.234375 95.640625 -29.296875 C 95.503906 -29.359375 95.570312 -29.257812 95.84375 -29 Z M 49.96875 -30.578125 C 49.582031 -30.578125 49.519531 -30.445312 49.78125 -30.1875 C 49.78125 -30.1875 49.8125 -30.148438 49.875 -30.078125 C 49.9375 -30.015625 50.035156 -29.984375 50.171875 -29.984375 C 50.171875 -29.984375 50.171875 -30.015625 50.171875 -30.078125 C 50.171875 -30.148438 50.238281 -30.1875 50.375 -30.1875 C 50.101562 -30.445312 49.96875 -30.578125 49.96875 -30.578125 Z M 92.703125 -30.578125 C 92.179688 -30.578125 91.851562 -30.316406 91.71875 -29.796875 L 92.109375 -29.390625 C 92.367188 -29.523438 92.53125 -29.65625 92.59375 -29.78125 C 92.664062 -29.914062 92.765625 -30.050781 92.890625 -30.1875 C 93.148438 -30.445312 93.085938 -30.578125 92.703125 -30.578125 Z M 94.65625 -28.03125 C 94.914062 -28.550781 94.851562 -28.8125 94.46875 -28.8125 C 94.207031 -29.070312 94.078125 -29.003906 94.078125 -28.609375 C 94.078125 -28.222656 94.140625 -27.960938 94.265625 -27.828125 C 94.523438 -27.828125 94.65625 -27.894531 94.65625 -28.03125 Z M 97.015625 -27.046875 L 97.203125 -27.046875 C 97.078125 -26.785156 96.882812 -26.617188 96.625 -26.546875 C 96.363281 -26.484375 96.101562 -26.390625 95.84375 -26.265625 C 95.96875 -25.867188 96.191406 -25.703125 96.515625 -25.765625 C 96.847656 -25.835938 97.078125 -25.742188 97.203125 -25.484375 C 97.335938 -25.484375 97.40625 -25.445312 97.40625 -25.375 C 97.40625 -25.3125 97.46875 -25.28125 97.59375 -25.28125 C 97.59375 -25.15625 97.625 -25.054688 97.6875 -24.984375 C 97.757812 -24.921875 97.859375 -24.957031 97.984375 -25.09375 C 97.984375 -25.09375 97.984375 -25.222656 97.984375 -25.484375 C 97.984375 -26.128906 97.722656 -26.648438 97.203125 -27.046875 C 96.941406 -27.703125 96.550781 -28.03125 96.03125 -28.03125 C 95.90625 -28.03125 95.84375 -27.992188 95.84375 -27.921875 C 95.84375 -27.859375 95.84375 -27.828125 95.84375 -27.828125 C 95.96875 -27.566406 96.160156 -27.4375 96.421875 -27.4375 C 96.679688 -27.4375 96.878906 -27.304688 97.015625 -27.046875 Z M 48.796875 -26.453125 C 48.929688 -26.328125 49.128906 -26.394531 49.390625 -26.65625 C 49.390625 -26.914062 49.320312 -27.046875 49.1875 -27.046875 C 48.925781 -27.046875 48.734375 -26.976562 48.609375 -26.84375 C 48.609375 -26.582031 48.671875 -26.453125 48.796875 -26.453125 Z M 50.375 -24.5 C 50.632812 -24.757812 50.695312 -25.019531 50.5625 -25.28125 C 50.5625 -25.675781 50.429688 -25.875 50.171875 -25.875 C 50.035156 -25.875 49.96875 -25.546875 49.96875 -24.890625 C 49.707031 -24.628906 49.84375 -24.5 50.375 -24.5 Z M 67.421875 -25.28125 C 67.160156 -24.757812 67.289062 -24.429688 67.8125 -24.296875 C 67.9375 -24.296875 68.066406 -24.363281 68.203125 -24.5 L 67.609375 -25.875 C 67.484375 -25.738281 67.421875 -25.539062 67.421875 -25.28125 Z M 104.453125 -16.265625 C 105.367188 -17.179688 105.367188 -17.898438 104.453125 -18.421875 C 104.191406 -18.679688 104.0625 -18.878906 104.0625 -19.015625 C 104.0625 -19.796875 103.800781 -20.25 103.28125 -20.375 C 102.757812 -20.375 102.757812 -20.640625 103.28125 -21.171875 C 103.539062 -21.429688 103.539062 -21.625 103.28125 -21.75 C 103.019531 -22.007812 102.757812 -22.269531 102.5 -22.53125 C 102.238281 -22.800781 101.910156 -22.867188 101.515625 -22.734375 C 101.515625 -22.734375 101.644531 -22.992188 101.90625 -23.515625 C 102.039062 -23.773438 102.238281 -23.96875 102.5 -24.09375 C 102.757812 -24.226562 102.757812 -24.363281 102.5 -24.5 C 102.363281 -24.757812 102.226562 -24.757812 102.09375 -24.5 C 101.96875 -24.238281 101.773438 -24.039062 101.515625 -23.90625 C 101.390625 -23.90625 101.195312 -23.773438 100.9375 -23.515625 C 100.800781 -23.253906 100.992188 -22.992188 101.515625 -22.734375 C 101.390625 -22.597656 101.328125 -22.460938 101.328125 -22.328125 C 101.328125 -22.203125 101.257812 -22.140625 101.125 -22.140625 C 100.46875 -21.492188 100.535156 -21.234375 101.328125 -21.359375 C 101.453125 -21.359375 101.644531 -21.226562 101.90625 -20.96875 C 102.300781 -19.925781 102.757812 -19.078125 103.28125 -18.421875 C 103.539062 -18.160156 103.671875 -17.570312 103.671875 -16.65625 C 103.410156 -16 103.148438 -15.671875 102.890625 -15.671875 C 101.972656 -15.671875 101.644531 -16 101.90625 -16.65625 C 102.300781 -17.695312 102.203125 -18.414062 101.609375 -18.8125 C 101.023438 -19.207031 100.34375 -19.535156 99.5625 -19.796875 C 99.425781 -19.921875 99.289062 -20.015625 99.15625 -20.078125 C 99.03125 -20.148438 98.90625 -20.25 98.78125 -20.375 C 98.644531 -20.90625 98.25 -21.039062 97.59375 -20.78125 C 97.070312 -20.644531 96.710938 -20.769531 96.515625 -21.15625 C 96.328125 -21.550781 96.234375 -21.878906 96.234375 -22.140625 C 96.097656 -22.535156 96.191406 -22.695312 96.515625 -22.625 C 96.847656 -22.5625 97.144531 -22.53125 97.40625 -22.53125 C 97.789062 -22.40625 97.984375 -22.539062 97.984375 -22.9375 C 97.984375 -23.320312 97.921875 -23.515625 97.796875 -23.515625 C 97.140625 -23.773438 96.550781 -23.804688 96.03125 -23.609375 C 95.507812 -23.421875 94.921875 -23.257812 94.265625 -23.125 C 93.878906 -23 93.75 -22.769531 93.875 -22.4375 C 94.007812 -22.113281 94.078125 -21.882812 94.078125 -21.75 C 94.335938 -21.226562 94.300781 -20.96875 93.96875 -20.96875 C 93.644531 -20.96875 93.351562 -20.90625 93.09375 -20.78125 C 92.4375 -20.507812 92.175781 -20.242188 92.3125 -19.984375 C 92.3125 -19.859375 92.632812 -19.597656 93.28125 -19.203125 C 93.28125 -19.203125 93.476562 -19.203125 93.875 -19.203125 C 94.132812 -19.335938 94.296875 -19.335938 94.359375 -19.203125 C 94.429688 -19.078125 94.335938 -18.945312 94.078125 -18.8125 C 93.679688 -18.6875 93.613281 -18.359375 93.875 -17.828125 C 94.132812 -17.703125 94.234375 -17.472656 94.171875 -17.140625 C 94.109375 -16.816406 94.140625 -16.523438 94.265625 -16.265625 C 93.609375 -16.265625 92.890625 -16.132812 92.109375 -15.875 C 91.984375 -15.738281 91.953125 -15.640625 92.015625 -15.578125 C 92.078125 -15.515625 92.109375 -15.484375 92.109375 -15.484375 C 92.765625 -15.484375 93.484375 -15.679688 94.265625 -16.078125 C 94.140625 -15.941406 94.140625 -15.742188 94.265625 -15.484375 C 94.398438 -15.222656 94.335938 -14.960938 94.078125 -14.703125 C 93.421875 -14.441406 93.222656 -14.210938 93.484375 -14.015625 C 93.742188 -13.816406 93.941406 -13.585938 94.078125 -13.328125 C 94.335938 -13.066406 94.597656 -12.9375 94.859375 -12.9375 C 95.117188 -12.9375 95.25 -12.738281 95.25 -12.34375 C 95.113281 -11.6875 95.242188 -11.390625 95.640625 -11.453125 C 96.035156 -11.523438 96.363281 -11.628906 96.625 -11.765625 L 96.03125 -10.578125 C 95.90625 -10.453125 95.972656 -10.257812 96.234375 -10 C 97.671875 -10 98.390625 -10.71875 98.390625 -12.15625 L 98.390625 -13.515625 C 97.210938 -13.253906 96.625 -12.671875 96.625 -11.765625 C 96.363281 -12.023438 96.234375 -12.15625 96.234375 -12.15625 C 96.097656 -12.9375 96 -13.71875 95.9375 -14.5 C 95.875 -15.28125 95.84375 -16 95.84375 -16.65625 C 95.84375 -17.832031 96.363281 -18.03125 97.40625 -17.25 L 98.390625 -16.078125 C 98.253906 -16.078125 98.1875 -16.039062 98.1875 -15.96875 C 98.1875 -15.90625 98.117188 -15.875 97.984375 -15.875 C 97.859375 -15.738281 97.628906 -15.703125 97.296875 -15.765625 C 96.972656 -15.835938 96.8125 -15.675781 96.8125 -15.28125 C 96.8125 -14.894531 97.140625 -14.570312 97.796875 -14.3125 C 97.921875 -14.3125 98.015625 -14.273438 98.078125 -14.203125 C 98.148438 -14.140625 98.253906 -14.109375 98.390625 -14.109375 L 98.390625 -16.078125 C 98.515625 -16.335938 98.804688 -16.46875 99.265625 -16.46875 C 99.722656 -16.46875 99.625 -16.726562 98.96875 -17.25 C 98.84375 -17.632812 98.910156 -17.828125 99.171875 -17.828125 C 99.816406 -18.085938 100.207031 -17.957031 100.34375 -17.4375 C 100.601562 -16.789062 100.832031 -16.140625 101.03125 -15.484375 C 101.226562 -14.828125 101.195312 -14.109375 100.9375 -13.328125 C 100.9375 -12.804688 100.867188 -12.414062 100.734375 -12.15625 C 100.734375 -11.894531 100.863281 -11.765625 101.125 -11.765625 C 101.519531 -11.765625 101.71875 -11.894531 101.71875 -12.15625 C 101.320312 -12.9375 101.582031 -13.457031 102.5 -13.71875 C 102.757812 -13.976562 103.117188 -14.039062 103.578125 -13.90625 C 104.035156 -13.78125 103.9375 -14.109375 103.28125 -14.890625 C 103.15625 -15.148438 103.285156 -15.378906 103.671875 -15.578125 C 104.066406 -15.773438 104.328125 -16.003906 104.453125 -16.265625 Z M 106.8125 -19.59375 C 106.9375 -19.59375 106.867188 -19.722656 106.609375 -19.984375 C 106.484375 -20.378906 106.484375 -20.707031 106.609375 -20.96875 C 106.609375 -21.882812 106.347656 -22.40625 105.828125 -22.53125 C 105.304688 -22.53125 105.175781 -22.367188 105.4375 -22.046875 C 105.695312 -21.722656 105.695312 -21.429688 105.4375 -21.171875 C 105.175781 -21.171875 105.046875 -21.039062 105.046875 -20.78125 C 104.785156 -20.25 104.785156 -19.921875 105.046875 -19.796875 C 105.304688 -19.660156 105.894531 -19.59375 106.8125 -19.59375 Z M 48.015625 -21.953125 C 47.878906 -21.953125 47.84375 -21.882812 47.90625 -21.75 C 47.976562 -21.625 48.082031 -21.5625 48.21875 -21.5625 C 48.21875 -21.5625 48.347656 -21.691406 48.609375 -21.953125 C 48.609375 -22.210938 48.476562 -22.34375 48.21875 -22.34375 C 48.21875 -22.34375 48.179688 -22.304688 48.109375 -22.234375 C 48.046875 -22.171875 48.015625 -22.078125 48.015625 -21.953125 Z M 92.890625 -21.953125 C 92.890625 -22.210938 92.757812 -22.34375 92.5 -22.34375 C 92.375 -22.34375 92.3125 -22.210938 92.3125 -21.953125 C 92.3125 -21.691406 92.375 -21.5625 92.5 -21.5625 C 92.757812 -21.425781 92.890625 -21.554688 92.890625 -21.953125 Z M 66.640625 -21.171875 C 66.378906 -21.035156 66.28125 -20.898438 66.34375 -20.765625 C 66.40625 -20.640625 66.375 -20.507812 66.25 -20.375 C 66.375 -20.25 66.40625 -20.117188 66.34375 -19.984375 C 66.28125 -19.859375 66.3125 -19.664062 66.4375 -19.40625 C 66.570312 -19.664062 66.640625 -19.925781 66.640625 -20.1875 C 66.640625 -20.445312 66.703125 -20.644531 66.828125 -20.78125 C 66.828125 -21.039062 66.765625 -21.171875 66.640625 -21.171875 Z M 68.984375 -18.8125 C 68.859375 -18.6875 68.859375 -18.585938 68.984375 -18.515625 C 69.117188 -18.453125 69.1875 -18.488281 69.1875 -18.625 C 69.707031 -18.882812 69.898438 -19.207031 69.765625 -19.59375 C 69.765625 -19.59375 69.765625 -19.625 69.765625 -19.6875 C 69.765625 -19.757812 69.632812 -19.859375 69.375 -19.984375 C 69.375 -19.722656 69.242188 -19.332031 68.984375 -18.8125 Z M 98.1875 -19.59375 C 98.84375 -19.59375 99.171875 -19.269531 99.171875 -18.625 C 99.035156 -18.351562 98.640625 -18.351562 97.984375 -18.625 C 97.722656 -18.75 97.398438 -18.8125 97.015625 -18.8125 C 96.492188 -18.550781 96.234375 -18.679688 96.234375 -19.203125 C 96.097656 -19.460938 96.359375 -19.722656 97.015625 -19.984375 C 97.273438 -19.984375 97.664062 -19.851562 98.1875 -19.59375 Z M 64.28125 -19.796875 C 64.019531 -19.796875 63.890625 -19.664062 63.890625 -19.40625 C 63.890625 -19.269531 64.019531 -19.203125 64.28125 -19.203125 C 64.539062 -19.203125 64.671875 -19.332031 64.671875 -19.59375 C 64.671875 -19.988281 64.539062 -20.054688 64.28125 -19.796875 Z M 23.90625 -18.8125 C 24.300781 -18.8125 24.5 -18.941406 24.5 -19.203125 C 24.5 -19.335938 24.367188 -19.535156 24.109375 -19.796875 C 23.710938 -19.796875 23.515625 -19.664062 23.515625 -19.40625 C 23.515625 -19.007812 23.644531 -18.8125 23.90625 -18.8125 Z M 15.671875 -18.03125 C 15.941406 -18.03125 16.078125 -18.226562 16.078125 -18.625 C 15.804688 -18.882812 15.671875 -19.015625 15.671875 -19.015625 C 15.546875 -19.015625 15.351562 -18.882812 15.09375 -18.625 C 15.09375 -18.226562 15.285156 -18.03125 15.671875 -18.03125 Z M 17.828125 -16.859375 C 18.085938 -16.859375 18.21875 -16.988281 18.21875 -17.25 C 18.21875 -17.507812 18.085938 -17.703125 17.828125 -17.828125 C 17.703125 -17.828125 17.640625 -17.695312 17.640625 -17.4375 C 17.640625 -17.175781 17.703125 -16.984375 17.828125 -16.859375 Z M 61.140625 -17.4375 C 61.015625 -17.175781 60.820312 -17.046875 60.5625 -17.046875 C 60.300781 -17.046875 60.101562 -16.914062 59.96875 -16.65625 C 59.96875 -16.65625 59.96875 -16.625 59.96875 -16.5625 C 59.96875 -16.5 60.035156 -16.46875 60.171875 -16.46875 C 60.429688 -16.46875 60.65625 -16.5625 60.84375 -16.75 C 61.039062 -16.945312 61.207031 -17.113281 61.34375 -17.25 C 61.34375 -17.507812 61.273438 -17.570312 61.140625 -17.4375 Z M 66.4375 -16.46875 C 66.957031 -16.46875 67.085938 -16.660156 66.828125 -17.046875 C 66.828125 -17.179688 66.632812 -17.3125 66.25 -17.4375 C 65.976562 -17.175781 65.910156 -16.984375 66.046875 -16.859375 C 66.046875 -16.597656 66.175781 -16.46875 66.4375 -16.46875 Z M 64.09375 -16.078125 C 64.476562 -16.335938 64.671875 -16.597656 64.671875 -16.859375 C 64.671875 -17.242188 64.609375 -17.375 64.484375 -17.25 C 64.085938 -17.113281 63.820312 -16.851562 63.6875 -16.46875 Z M 10.578125 -15.875 C 10.835938 -15.875 10.96875 -16.003906 10.96875 -16.265625 C 10.96875 -16.660156 10.773438 -16.859375 10.390625 -16.859375 C 10.128906 -16.597656 10 -16.398438 10 -16.265625 C 10.257812 -16.003906 10.453125 -15.875 10.578125 -15.875 Z M 57.421875 -16.078125 C 57.160156 -16.335938 57.03125 -16.269531 57.03125 -15.875 C 57.03125 -15.613281 57.160156 -15.445312 57.421875 -15.375 C 57.679688 -15.3125 57.878906 -15.148438 58.015625 -14.890625 C 57.878906 -15.148438 57.8125 -15.378906 57.8125 -15.578125 C 57.8125 -15.773438 57.679688 -15.941406 57.421875 -16.078125 Z M 69.96875 -14.703125 C 70.226562 -14.960938 70.160156 -15.09375 69.765625 -15.09375 C 69.242188 -14.832031 68.851562 -14.570312 68.59375 -14.3125 C 68.46875 -14.175781 68.335938 -14.007812 68.203125 -13.8125 C 68.066406 -13.613281 67.867188 -13.453125 67.609375 -13.328125 C 67.222656 -13.328125 67.03125 -13.195312 67.03125 -12.9375 C 67.03125 -12.9375 67.289062 -12.9375 67.8125 -12.9375 L 68.984375 -12.9375 C 69.378906 -13.0625 69.609375 -13.320312 69.671875 -13.71875 C 69.734375 -14.113281 69.832031 -14.441406 69.96875 -14.703125 Z M 59.1875 -14.109375 C 58.925781 -14.628906 58.535156 -14.828125 58.015625 -14.703125 C 58.015625 -14.304688 57.945312 -14.046875 57.8125 -13.921875 C 57.8125 -13.785156 57.742188 -13.648438 57.609375 -13.515625 C 57.484375 -13.390625 57.550781 -13.257812 57.8125 -13.125 C 58.46875 -12.863281 58.925781 -12.863281 59.1875 -13.125 C 59.1875 -13.125 59.1875 -13.453125 59.1875 -14.109375 Z M 21.953125 -11.359375 C 22.210938 -11.628906 22.304688 -12.023438 22.234375 -12.546875 C 22.171875 -13.066406 21.945312 -13.390625 21.5625 -13.515625 C 21.300781 -13.785156 21.035156 -13.984375 20.765625 -14.109375 C 20.503906 -14.242188 20.242188 -14.375 19.984375 -14.5 L 19.59375 -14.703125 C 19.332031 -14.566406 19.332031 -14.304688 19.59375 -13.921875 C 19.46875 -13.265625 19.632812 -12.769531 20.09375 -12.4375 C 20.550781 -12.113281 20.972656 -11.691406 21.359375 -11.171875 C 21.359375 -11.035156 21.421875 -11 21.546875 -11.0625 C 21.679688 -11.132812 21.816406 -11.234375 21.953125 -11.359375 Z M 56.046875 -13.328125 C 56.304688 -13.328125 56.4375 -13.523438 56.4375 -13.921875 C 56.4375 -14.179688 56.304688 -14.3125 56.046875 -14.3125 C 55.921875 -14.175781 55.859375 -13.976562 55.859375 -13.71875 C 55.859375 -13.457031 55.921875 -13.328125 56.046875 -13.328125 Z M 54.28125 -13.328125 C 54.15625 -13.328125 54.023438 -13.289062 53.890625 -13.21875 C 53.765625 -13.15625 53.703125 -13.125 53.703125 -13.125 C 53.828125 -13 54.019531 -12.9375 54.28125 -12.9375 C 54.414062 -12.9375 54.484375 -12.96875 54.484375 -13.03125 C 54.484375 -13.09375 54.546875 -13.125 54.671875 -13.125 C 54.671875 -13.257812 54.539062 -13.328125 54.28125 -13.328125 Z M 16.859375 -11.5625 L 16.859375 -11.953125 C 16.859375 -12.472656 16.789062 -12.800781 16.65625 -12.9375 C 16.65625 -12.800781 16.625 -12.703125 16.5625 -12.640625 C 16.5 -12.578125 16.46875 -12.476562 16.46875 -12.34375 C 16.46875 -11.820312 16.597656 -11.5625 16.859375 -11.5625 Z M 93.09375 -9.609375 C 93.21875 -9.472656 93.3125 -9.40625 93.375 -9.40625 C 93.445312 -9.40625 93.484375 -9.40625 93.484375 -9.40625 C 93.347656 -9.664062 93.3125 -9.988281 93.375 -10.375 C 93.445312 -10.769531 93.351562 -11.097656 93.09375 -11.359375 L 92.890625 -11.359375 C 92.890625 -11.628906 92.953125 -11.828125 93.078125 -11.953125 C 93.210938 -12.085938 93.148438 -12.21875 92.890625 -12.34375 C 92.765625 -12.476562 92.570312 -12.578125 92.3125 -12.640625 C 92.050781 -12.703125 91.851562 -12.601562 91.71875 -12.34375 C 91.59375 -12.082031 91.851562 -11.820312 92.5 -11.5625 C 92.632812 -11.425781 92.765625 -11.359375 92.890625 -11.359375 C 92.890625 -11.097656 92.890625 -10.804688 92.890625 -10.484375 C 92.890625 -10.160156 92.957031 -9.867188 93.09375 -9.609375 Z M 60.75 -11.359375 C 60.625 -11.753906 60.234375 -12.082031 59.578125 -12.34375 C 59.054688 -12.34375 58.925781 -12.210938 59.1875 -11.953125 C 59.707031 -11.429688 60.097656 -11.171875 60.359375 -11.171875 C 60.617188 -10.910156 60.75 -10.972656 60.75 -11.359375 Z M 100.140625 -11.765625 C 100.015625 -11.890625 100.015625 -12.015625 100.140625 -12.140625 C 100.273438 -12.273438 100.210938 -12.34375 99.953125 -12.34375 C 99.554688 -12.34375 99.359375 -12.210938 99.359375 -11.953125 C 98.835938 -11.429688 98.835938 -11.039062 99.359375 -10.78125 C 99.359375 -10.257812 99.554688 -10.191406 99.953125 -10.578125 C 99.953125 -10.578125 99.953125 -10.90625 99.953125 -11.5625 C 100.078125 -11.5625 100.140625 -11.59375 100.140625 -11.65625 C 100.140625 -11.726562 100.140625 -11.765625 100.140625 -11.765625 Z M 55.265625 -12.15625 C 54.867188 -12.019531 54.671875 -11.785156 54.671875 -11.453125 C 54.671875 -11.128906 54.539062 -10.90625 54.28125 -10.78125 C 54.414062 -10.78125 54.484375 -10.742188 54.484375 -10.671875 C 54.484375 -10.609375 54.484375 -10.578125 54.484375 -10.578125 C 55.003906 -10.578125 55.394531 -10.90625 55.65625 -11.5625 C 55.65625 -11.957031 55.523438 -12.15625 55.265625 -12.15625 Z M 48.40625 -11.359375 C 48.664062 -11.359375 48.796875 -11.425781 48.796875 -11.5625 C 48.796875 -11.820312 48.664062 -11.953125 48.40625 -11.953125 L 48.21875 -11.765625 C 48.21875 -11.492188 48.28125 -11.359375 48.40625 -11.359375 Z M 67.03125 -11.359375 C 67.03125 -11.097656 67.160156 -10.96875 67.421875 -10.96875 C 67.679688 -11.226562 67.8125 -11.492188 67.8125 -11.765625 C 67.8125 -11.890625 67.679688 -11.953125 67.421875 -11.953125 C 67.160156 -11.953125 67.03125 -11.753906 67.03125 -11.359375 Z M 101.71875 -9.40625 C 101.976562 -9.800781 102.207031 -10.191406 102.40625 -10.578125 C 102.601562 -10.972656 102.765625 -11.300781 102.890625 -11.5625 C 102.890625 -11.695312 102.859375 -11.796875 102.796875 -11.859375 C 102.734375 -11.921875 102.703125 -11.953125 102.703125 -11.953125 C 102.429688 -11.691406 102.132812 -11.429688 101.8125 -11.171875 C 101.488281 -10.910156 101.257812 -10.519531 101.125 -10 C 100.863281 -9.738281 100.734375 -9.539062 100.734375 -9.40625 C 100.609375 -9.40625 100.410156 -9.503906 100.140625 -9.703125 C 99.878906 -9.898438 99.6875 -9.800781 99.5625 -9.40625 C 99.425781 -9.007812 99.6875 -8.488281 100.34375 -7.84375 C 100.601562 -7.582031 100.992188 -7.582031 101.515625 -7.84375 C 102.035156 -7.84375 102.164062 -8.035156 101.90625 -8.421875 C 101.90625 -8.554688 101.710938 -8.625 101.328125 -8.625 C 100.804688 -8.363281 100.609375 -8.394531 100.734375 -8.71875 C 100.867188 -9.050781 100.804688 -9.28125 100.546875 -9.40625 C 100.804688 -9.40625 101.03125 -9.375 101.21875 -9.3125 C 101.414062 -9.25 101.582031 -9.28125 101.71875 -9.40625 Z M 105.828125 -10.96875 C 106.222656 -10.96875 106.421875 -11.164062 106.421875 -11.5625 C 106.421875 -11.5625 106.421875 -11.59375 106.421875 -11.65625 C 106.421875 -11.726562 106.351562 -11.765625 106.21875 -11.765625 C 105.957031 -11.492188 105.695312 -11.296875 105.4375 -11.171875 C 105.570312 -11.171875 105.640625 -11.132812 105.640625 -11.0625 C 105.640625 -11 105.703125 -10.96875 105.828125 -10.96875 Z M 64.875 -9.796875 C 65 -9.796875 65.0625 -9.925781 65.0625 -10.1875 C 64.9375 -10.320312 64.90625 -10.453125 64.96875 -10.578125 C 65.03125 -10.710938 64.929688 -10.78125 64.671875 -10.78125 L 64.671875 -10.1875 C 64.410156 -9.925781 64.476562 -9.796875 64.875 -9.796875 Z M 63.109375 -9.015625 C 63.234375 -9.148438 63.296875 -9.347656 63.296875 -9.609375 C 63.035156 -9.609375 62.84375 -9.539062 62.71875 -9.40625 C 62.195312 -9.28125 61.800781 -9.019531 61.53125 -8.625 C 61.269531 -8.226562 60.878906 -7.96875 60.359375 -7.84375 C 60.097656 -8.101562 59.96875 -8.296875 59.96875 -8.421875 C 59.84375 -9.078125 59.679688 -9.46875 59.484375 -9.59375 C 59.285156 -9.726562 58.796875 -9.734375 58.015625 -9.609375 L 57.625 -10 C 57.488281 -10 57.351562 -10.0625 57.21875 -10.1875 C 57.09375 -10.320312 57.03125 -10.390625 57.03125 -10.390625 C 56.894531 -10.253906 56.960938 -9.992188 57.234375 -9.609375 C 57.359375 -9.347656 57.351562 -8.988281 57.21875 -8.53125 C 57.09375 -8.070312 57.289062 -7.90625 57.8125 -8.03125 C 58.332031 -8.164062 58.789062 -8.132812 59.1875 -7.9375 C 59.582031 -7.738281 59.972656 -7.707031 60.359375 -7.84375 C 60.234375 -7.707031 60.171875 -7.570312 60.171875 -7.4375 C 60.171875 -7.3125 60.101562 -7.1875 59.96875 -7.0625 C 59.1875 -7.0625 58.859375 -6.863281 58.984375 -6.46875 C 58.984375 -6.332031 59.082031 -6.101562 59.28125 -5.78125 C 59.476562 -5.457031 59.707031 -5.359375 59.96875 -5.484375 C 60.488281 -5.617188 60.554688 -6.007812 60.171875 -6.65625 C 60.171875 -6.789062 60.132812 -6.859375 60.0625 -6.859375 C 60 -6.859375 59.96875 -6.925781 59.96875 -7.0625 C 60.75 -7.0625 61.335938 -7.351562 61.734375 -7.9375 C 62.128906 -8.519531 62.585938 -8.878906 63.109375 -9.015625 Z M 94.65625 -9.015625 C 95.050781 -9.015625 95.25 -9.144531 95.25 -9.40625 C 95.25 -9.800781 94.988281 -10 94.46875 -10 C 94.207031 -10.257812 94.078125 -10.191406 94.078125 -9.796875 C 94.078125 -9.273438 94.269531 -9.015625 94.65625 -9.015625 Z M 68.59375 -9.609375 C 68.726562 -9.472656 68.796875 -9.535156 68.796875 -9.796875 C 68.660156 -9.796875 68.5625 -9.828125 68.5 -9.890625 C 68.4375 -9.960938 68.335938 -10 68.203125 -10 C 67.421875 -9.738281 67.09375 -9.34375 67.21875 -8.8125 C 67.21875 -8.425781 67.414062 -8.234375 67.8125 -8.234375 C 68.207031 -8.359375 68.304688 -8.617188 68.109375 -9.015625 C 67.910156 -9.410156 68.070312 -9.609375 68.59375 -9.609375 Z M 56.046875 -7.84375 C 56.441406 -8.363281 56.179688 -8.882812 55.265625 -9.40625 C 55.265625 -9.539062 55.195312 -9.609375 55.0625 -9.609375 C 54.9375 -9.609375 54.875 -9.539062 54.875 -9.40625 L 54.875 -8.8125 C 55.132812 -8.6875 55.363281 -8.554688 55.5625 -8.421875 C 55.757812 -8.296875 55.921875 -8.101562 56.046875 -7.84375 C 55.523438 -7.84375 55.066406 -7.644531 54.671875 -7.25 C 54.285156 -6.851562 53.960938 -6.460938 53.703125 -6.078125 C 53.441406 -5.816406 53.441406 -5.6875 53.703125 -5.6875 C 53.960938 -5.550781 54.15625 -5.550781 54.28125 -5.6875 C 54.539062 -6.070312 54.867188 -6.394531 55.265625 -6.65625 C 55.660156 -6.925781 55.921875 -7.320312 56.046875 -7.84375 Z M 99.75 -6.65625 C 100.007812 -6.925781 100.039062 -7.125 99.84375 -7.25 C 99.65625 -7.382812 99.492188 -7.515625 99.359375 -7.640625 C 99.359375 -7.773438 99.226562 -8.101562 98.96875 -8.625 L 98.78125 -8.8125 L 98.578125 -8.625 C 98.316406 -7.96875 98.445312 -7.378906 98.96875 -6.859375 C 99.363281 -6.597656 99.625 -6.53125 99.75 -6.65625 Z M 96.234375 -7.84375 C 96.617188 -7.84375 96.8125 -7.972656 96.8125 -8.234375 C 96.8125 -8.492188 96.679688 -8.625 96.421875 -8.625 C 96.160156 -8.625 95.96875 -8.492188 95.84375 -8.234375 C 95.84375 -7.972656 95.972656 -7.84375 96.234375 -7.84375 Z M 66.4375 -6.65625 C 66.695312 -6.65625 66.828125 -6.722656 66.828125 -6.859375 C 66.304688 -7.117188 66.046875 -7.445312 66.046875 -7.84375 C 65.910156 -7.84375 65.84375 -7.644531 65.84375 -7.25 C 65.71875 -6.851562 65.914062 -6.65625 66.4375 -6.65625 Z M 99.359375 -4.703125 C 99.617188 -4.703125 99.75 -4.898438 99.75 -5.296875 C 99.75 -5.816406 99.554688 -5.945312 99.171875 -5.6875 C 98.910156 -5.6875 98.78125 -5.617188 98.78125 -5.484375 C 98.78125 -4.960938 98.972656 -4.703125 99.359375 -4.703125 Z M 61.734375 -4.5 C 61.992188 -4.5 62.125 -4.566406 62.125 -4.703125 C 62.125 -4.960938 61.992188 -5.09375 61.734375 -5.09375 C 61.609375 -4.96875 61.476562 -4.9375 61.34375 -5 C 61.207031 -5.0625 61.140625 -4.960938 61.140625 -4.703125 C 61.140625 -4.566406 61.335938 -4.5 61.734375 -4.5 Z M 61.734375 -4.5 "/></g></g></g></svg>